<svg width="105" height="35" viewBox="0 0 105 35" fill="none" xmlns="http://www.w3.org/2000/svg">
<path d="M7.58384 16.7202C7.18659 16.7202 6.82545 16.6478 6.51849 16.521C5.61565 16.2492 4.6767 15.6696 3.73775 14.8C2.7988 13.8943 1.96819 12.8074 1.26397 11.5574C0.595873 10.2713 0.180571 9.00321 0.0541736 7.75327C0.0180601 7.62646 0 7.4453 0 7.24603C0 7.04677 0 6.81128 0 6.53955C0 2.17382 2.72657 0 8.19776 0C10.8882 0 13.8676 0.416647 17.0997 1.26806C20.3319 2.11947 24.0877 3.24261 28.3672 4.6737C29.4506 5.05412 30.3534 5.34396 31.0937 5.57946C31.834 5.81495 32.3758 5.97799 32.7188 6.08668C33.8564 6.43086 34.9218 6.5939 35.8968 6.5939C36.9802 6.5939 37.7747 6.39463 38.2803 5.97798C38.7859 5.54322 39.0206 5.07223 38.9845 4.565V4.36574C38.9845 3.96721 39.1109 3.74983 39.3457 3.74983C39.6165 3.74983 39.9054 3.9491 40.2124 4.36574C40.3388 4.52878 40.411 4.76427 40.411 5.07222C40.411 5.77871 40.0318 6.44898 39.2554 7.04677C38.4789 7.66269 37.3052 7.95253 35.7163 7.95253C34.2717 7.95253 32.6647 7.71703 30.9132 7.24603C29.1616 6.77504 26.8865 6.08667 24.0877 5.1628C20.9458 4.14836 18.3818 3.38753 16.3594 2.8803C14.3371 2.33685 12.4411 2.06512 10.6896 2.06512C6.57266 2.06512 3.97249 3.87663 2.85297 7.49965C2.74463 7.84384 2.70851 8.22426 2.70851 8.65902C2.70851 9.51043 2.92519 10.4705 3.35856 11.5574C3.82803 12.6081 4.40585 13.5501 5.07395 14.4015C5.74205 15.2167 6.41015 15.6877 7.04213 15.8145H7.40327C8.21582 15.8145 8.61307 15.9594 8.61307 16.2674C8.61307 16.376 8.52279 16.4666 8.36028 16.5753C8.1436 16.6659 7.8908 16.7202 7.58384 16.7202ZM10.8341 34.9802C9.24506 34.6361 8.45056 33.7846 8.45056 32.3898C8.45056 31.7195 8.61307 30.8138 8.95615 29.7087C9.29923 28.7305 9.58814 27.861 9.85899 27.1183C10.166 26.3393 10.4549 25.6872 10.7257 25.1437C10.9966 24.6003 11.3216 24.0025 11.6827 23.3141C12.08 22.6439 12.5675 21.883 13.0911 21.0316L10.5632 22.4989C10.1298 22.7344 9.73259 22.9337 9.40757 23.1149C9.06449 23.2779 8.77558 23.4047 8.50473 23.4772C8.46862 23.4772 8.4325 23.4953 8.39639 23.5315C8.39639 23.5315 8.37833 23.5315 8.34222 23.5315C8.17971 23.5315 8.08943 23.4047 8.08943 23.133C8.08943 22.7526 8.21583 22.2997 8.45056 21.7562C8.72141 21.2128 8.97421 20.8686 9.20894 20.6874C9.6423 20.4519 10.0576 20.2527 10.4187 20.0715C10.7979 19.9085 11.1049 19.7817 11.3758 19.7092C11.4841 19.673 11.5924 19.6368 11.7369 19.6005C11.8633 19.5281 12.0258 19.4737 12.1883 19.4556C12.4953 19.3469 12.8925 19.202 13.3981 19.0027C13.9037 18.7672 14.3009 18.6223 14.6079 18.6042C14.6079 18.6042 14.7343 18.4412 14.969 18.097C15.2038 17.7166 15.5649 17.1912 16.0344 16.4666C17.4428 14.2747 18.3276 12.8617 18.6707 12.2639C19.4832 10.8147 20.2055 9.67346 20.8375 8.85828C21.2167 8.35106 21.7223 8.09745 22.4084 8.09745C22.8779 8.09745 23.3113 8.22425 23.7266 8.45975C24.1238 8.69524 24.3405 8.94886 24.3405 9.22058C24.3405 9.38362 24.2683 9.52854 24.1419 9.61912C23.2029 10.4343 22.0653 11.5755 20.7472 13.061C19.4652 14.5102 18.2012 16.0681 16.9553 17.7347C19.6457 17.0282 22.1737 16.6659 24.5391 16.6659C25.0808 16.6659 25.46 16.7202 25.6948 16.8108C25.9656 16.9738 26.092 17.1369 26.092 17.2637C26.092 17.3724 25.9837 17.4992 25.785 17.6622C25.6767 17.7347 25.5503 17.789 25.3878 17.8071C25.2614 17.8434 25.0989 17.8796 24.9364 17.9158C23.6543 17.9883 22.5348 18.097 21.5417 18.2781C20.5666 18.4412 19.6096 18.6767 18.6526 18.9846C17.7498 19.2563 16.7206 19.6186 15.5649 20.1077C14.8607 21.1222 14.2648 21.9917 13.7954 22.6982C13.3259 23.3685 12.9286 24.0206 12.6397 24.6184C12.3328 25.1981 12.0439 25.8321 11.773 26.5386C11.5022 27.2089 11.2132 28.0603 10.9063 29.0747C10.5632 30.0892 10.4007 30.9043 10.4007 31.5021C10.4007 32.4441 10.816 33.0238 11.6647 33.2231C11.9716 33.2593 12.1161 33.4223 12.1161 33.7303C12.1161 34.0382 11.9716 34.3281 11.6647 34.5998C11.4119 34.9259 11.123 35.0527 10.8341 34.9802ZM30.0103 31.6289C29.9381 31.6289 29.8839 31.6108 29.8117 31.5746C29.7395 31.5746 29.6853 31.5565 29.6131 31.5203C29.1436 31.2848 28.8366 30.9406 28.7102 30.5058C28.5838 30.071 28.5477 29.5095 28.6019 28.8392C28.6741 28.5675 28.7283 28.0965 28.8005 27.4262C28.9089 26.756 29.0172 26.2125 29.1617 25.7959L26.5795 28.2777L25.1711 29.6544C24.196 30.6326 23.3835 31.1217 22.7515 31.1217C22.4807 31.1217 22.264 31.013 22.1015 30.8138C21.7945 30.4334 21.65 29.9805 21.65 29.437C21.65 28.7305 21.8306 27.9697 22.2098 27.1545C22.589 26.3393 23.0224 25.5604 23.5279 24.8177C24.0335 24.0387 24.485 23.4047 24.9003 22.8975C25.9114 21.6475 26.8865 20.6693 27.8255 19.9628C28.8005 19.2563 29.8117 18.894 30.859 18.894C31.4368 18.894 31.9966 19.0027 32.5202 19.202C33.098 19.4013 33.6217 19.7455 34.0911 20.2164L34.1453 20.2708C34.1453 20.3795 34.055 20.4701 33.8925 20.5787C33.8203 20.6512 33.7661 20.7055 33.6939 20.7237C33.6578 20.7599 33.6217 20.7961 33.5856 20.8323C33.1883 21.2309 32.7188 21.9193 32.2132 22.8612C31.7077 23.8032 31.2743 24.7996 30.8951 25.8502C30.5159 26.8647 30.3353 27.7523 30.3353 28.495C30.3353 29.1653 30.4979 29.6363 30.8409 29.8718C31.0034 29.9805 31.2021 30.0167 31.4007 30.0167C31.834 30.0167 32.448 29.745 33.2244 29.2015C33.2605 29.1653 33.3328 29.1109 33.423 29.0566C33.5494 28.9479 33.7481 28.8211 33.9828 28.6581C34.2537 28.4588 34.4703 28.3501 34.6329 28.3501C34.7954 28.3501 34.8856 28.4226 34.8856 28.5494C34.8856 28.7486 34.7593 28.9841 34.4884 29.2559C34.2898 29.4189 34.055 29.6182 33.7842 29.8174C33.5494 30.0167 33.2605 30.216 32.9175 30.4333C32.4119 30.8138 31.8882 31.0855 31.3465 31.3029C30.7868 31.5203 30.3534 31.6289 30.0103 31.6289ZM24.3044 28.3863C25.0086 28.3863 26.3267 27.3357 28.2408 25.2343C28.7463 24.6546 29.1978 24.1112 29.6131 23.604C30.0103 23.0605 30.3895 22.5352 30.7326 22.028C31.3465 21.0497 31.5451 20.3795 31.3465 19.9991C31.2382 19.7998 31.0396 19.6911 30.7326 19.6911C30.3534 19.6911 29.8478 19.8904 29.2158 20.307C28.5838 20.6874 27.9157 21.1765 27.2476 21.7743C26.6156 22.3902 26.0198 22.9881 25.4781 23.604C25.0989 24.075 24.7377 24.7452 24.3586 25.5785C23.9794 26.4299 23.7988 27.1183 23.7988 27.6617C23.7988 28.1508 23.9613 28.3863 24.3044 28.3863ZM37.847 32.0818C37.1066 32.0818 36.7997 31.1761 36.9441 29.3464C37.0163 28.9479 37.1427 28.2958 37.3414 27.4262C37.5761 26.5386 37.865 25.5785 38.2081 24.5278C38.5512 23.4409 38.8581 22.4808 39.1651 21.6294C39.3637 21.0497 39.7249 20.5063 40.2304 19.9991C40.7721 19.4918 41.2055 19.2382 41.5486 19.2382C41.7472 19.2382 41.8555 19.365 41.8555 19.6368C41.8555 20.0172 41.6569 20.5787 41.2416 21.3577C40.736 22.2997 40.3388 23.1149 40.0318 23.7851C39.7248 24.4191 39.4721 25.0894 39.2734 25.7597C39.1109 26.3937 38.9123 27.1908 38.7137 28.1509V28.6037C38.7137 29.6906 38.9484 30.0167 39.4179 29.6182C40.3027 28.9117 41.2055 28.0784 42.1445 27.1364C43.0834 26.1582 43.9862 25.18 44.8169 24.2018C45.6655 23.2235 46.3336 22.354 46.8392 21.6113C47.1823 21.0679 47.5615 20.6693 47.9948 20.3976C48.4643 20.0896 48.6629 20.0353 48.6088 20.2527C48.5727 20.5606 48.2837 21.1222 47.742 21.9193C47.2365 22.7344 46.6045 23.6402 45.828 24.6546C45.0877 25.6329 44.3113 26.5748 43.4987 27.4987C42.7223 28.4045 42.0361 29.1291 41.4222 29.6363C41.1874 29.8718 40.8263 30.1797 40.3568 30.542C39.9235 30.9406 39.4721 31.3029 38.9845 31.6108C38.5512 31.9369 38.1539 32.0818 37.847 32.0818ZM50.4867 30.8138C49.7825 30.8138 49.1505 30.6326 48.6088 30.2522C47.724 29.5819 47.2906 28.5675 47.2906 27.2089C47.2906 25.8502 47.7601 24.4191 48.6991 22.8975C49.638 21.3758 51.0826 19.9809 52.9966 18.6948C53.3396 18.4593 53.7911 18.3325 54.3689 18.3325C55.1092 18.3325 55.7593 18.5317 56.3371 18.9484C56.951 19.3469 57.1857 19.8723 57.0413 20.5244C56.8065 21.5751 56.2829 22.4989 55.4703 23.3141C54.6939 24.1293 53.773 24.8539 52.6896 25.4879C51.6423 26.1038 50.5589 26.6835 49.4574 27.2632C49.4213 27.3719 49.3852 27.4625 49.3491 27.5712C49.3491 27.6799 49.3491 27.7704 49.3491 27.8791C49.3491 28.3501 49.4936 28.7668 49.8005 29.1472C50.1436 29.4914 50.595 29.6544 51.1728 29.6544C51.6062 29.6544 51.9854 29.5819 52.2924 29.4551C52.8341 29.2559 53.2674 29.0747 53.6105 28.8936C53.9897 28.7305 54.405 28.4769 54.8745 28.1327C55.3439 27.7886 55.994 27.2813 56.7885 26.6111C57.1677 26.3393 57.3844 26.2125 57.4385 26.2125C57.6371 26.2125 57.7094 26.3575 57.6371 26.6654C57.2941 27.2089 56.7163 27.8067 55.8676 28.4407C55.055 29.0747 54.1522 29.6363 53.141 30.1073C52.184 30.5783 51.2992 30.8138 50.4867 30.8138ZM49.7825 25.9046C50.0533 25.9046 50.6131 25.6328 51.4437 25.0894C52.2923 24.5459 53.0868 23.9481 53.8272 23.3141C55.1092 22.1366 55.7412 21.2128 55.7412 20.5787C55.7412 20.4157 55.687 20.2527 55.5967 20.1259C55.4884 19.9628 55.3439 19.8723 55.1453 19.8723C54.5133 19.8723 53.4299 20.6331 51.9132 22.1548C50.8659 23.1511 50.1436 24.4191 49.7825 25.9046ZM57.7816 33.6035C57.4024 33.6035 57.0954 33.4767 56.8246 33.2412C56.5899 33.0057 56.4815 32.7159 56.5176 32.3717C56.5899 30.9768 56.8426 29.6544 57.276 28.3682C57.7455 27.0821 58.4136 25.5423 59.2984 23.7489C59.4067 23.5134 59.4789 23.3141 59.5512 23.133C59.6595 22.9337 59.7317 22.7526 59.804 22.6257C60.5443 21.0316 61.3027 19.51 62.0791 18.0607C62.8556 16.6115 63.632 15.1804 64.4084 13.8037L65.1126 12.5356C65.9252 11.0864 66.6294 9.90896 67.2433 9.03943C67.8573 8.13368 68.4531 7.46342 69.0671 7.06488C69.8435 6.59389 70.313 6.3584 70.4755 6.3584C70.7464 6.3584 71.0172 6.59389 71.2881 7.06488C71.4506 7.40907 71.1255 8.22425 70.2769 9.54665C69.8435 10.2169 69.2838 11.0683 68.6157 12.0828C67.9837 13.0972 67.2072 14.2385 66.2863 15.5246C66.1238 15.7601 65.8349 16.1768 65.4196 16.7927C65.0404 17.3724 64.5348 18.1332 63.9028 19.0752C63.2709 20.0172 62.7111 20.8867 62.2416 21.6657C61.7721 22.4084 61.3749 23.0605 61.086 23.6402C60.4721 24.7633 59.9123 25.9589 59.3706 27.2451C58.8289 28.495 58.558 29.4733 58.558 30.1797C58.558 30.8138 58.8108 31.1398 59.3164 31.1398C60.129 31.1398 61.4291 30.4515 63.2167 29.0566C63.4153 29.0928 63.5237 29.1834 63.5237 29.3646C63.5237 29.4914 63.3611 29.745 63.0181 30.071C62.7111 30.379 62.3319 30.7051 61.8624 31.0312C61.4291 31.4116 60.9054 31.8282 60.2915 32.2992L59.4789 32.9151C58.9192 33.3861 58.3594 33.6035 57.7816 33.6035ZM65.5821 33.6035C65.2029 33.6035 64.896 33.4767 64.6251 33.2412C64.3904 33.0057 64.282 32.7159 64.3181 32.3717C64.3904 30.9768 64.6432 29.6544 65.0765 28.3682C65.546 27.0821 66.2141 25.5423 67.0989 23.7489C67.2072 23.5134 67.2795 23.3141 67.3517 23.133C67.46 22.9337 67.5322 22.7526 67.6045 22.6257C68.3448 21.0316 69.1032 19.51 69.8796 18.0607C70.6561 16.6115 71.4325 15.1804 72.2089 13.8037L72.9132 12.5356C73.7257 11.0864 74.4299 9.90896 75.0439 9.03943C75.6578 8.13368 76.2537 7.46342 76.8676 7.06488C77.644 6.59389 78.1135 6.3584 78.276 6.3584C78.5469 6.3584 78.8177 6.59389 79.0886 7.06488C79.2511 7.40907 78.9261 8.22425 78.0774 9.54665C77.644 10.2169 77.0843 11.0683 76.4162 12.0828C75.7842 13.0972 75.0077 14.2385 74.0869 15.5246C73.9243 15.7601 73.6354 16.1768 73.2201 16.7927C72.8409 17.3724 72.3353 18.1332 71.7034 19.0752C71.0714 20.0172 70.5116 20.8867 70.0421 21.6657C69.5727 22.4084 69.1754 23.0605 68.8865 23.6402C68.2726 24.7633 67.7128 25.9589 67.1711 27.2451C66.6294 28.495 66.3586 29.4733 66.3586 30.1797C66.3586 30.8138 66.6114 31.1398 67.1169 31.1398C67.9295 31.1398 69.2296 30.4515 71.0172 29.0566C71.2158 29.0928 71.3242 29.1834 71.3242 29.3646C71.3242 29.4914 71.1617 29.745 70.8186 30.071C70.5116 30.379 70.1324 30.7051 69.6629 31.0312C69.2296 31.4116 68.7059 31.8282 68.092 32.2992L67.2794 32.9151C66.7197 33.3861 66.1599 33.6035 65.5821 33.6035ZM78.4385 19.1476C78.0052 19.1476 77.7885 19.039 77.7885 18.8397C77.7885 18.6767 77.9149 18.4412 78.1496 18.1332C78.4205 17.789 78.7274 17.4992 79.0525 17.2637C79.7928 16.7927 80.3706 16.376 80.7678 16.05C81.2012 15.7058 81.7249 15.1442 82.3388 14.329C82.3749 14.4015 82.393 14.5283 82.393 14.7276C82.393 15.1623 82.2124 15.7058 81.8332 16.3579C81.4901 16.9738 81.1109 17.5173 80.6776 18.0245C80.2442 18.5317 79.8469 18.8578 79.5219 18.9846C79.1969 19.0933 78.8358 19.1476 78.4385 19.1476ZM73.9424 31.5746C73.6715 31.5746 73.4187 31.4659 73.184 31.2666C72.9493 31.0674 72.8229 30.7957 72.8229 30.4515C72.8229 29.745 73.3104 28.4407 74.2855 26.5386L74.8452 25.4155C74.9175 25.343 74.9897 25.18 75.098 24.9082C75.2244 24.6365 75.423 24.2742 75.6578 23.8395C75.8925 23.3685 76.0731 22.9518 76.2175 22.5714C76.3439 22.191 76.4523 21.8468 76.5245 21.5026C76.5245 21.4664 76.5967 21.3939 76.7231 21.3033C76.8495 21.2128 76.994 21.1222 77.1204 21.0497L77.4273 20.9954C77.6982 20.9954 77.9149 21.0497 78.0774 21.1403C78.276 21.249 78.3482 21.3758 78.276 21.5388C78.0413 22.0461 77.8427 22.4808 77.6621 22.8612C77.4996 23.2417 77.3551 23.5496 77.2648 23.8213H77.2107C76.8315 24.6727 76.5245 25.4698 76.2537 26.2488C76.0189 26.9915 75.9106 27.698 75.9467 28.3863L76.0009 29.7631C75.9647 30.1073 75.8564 30.3971 75.6397 30.6326C75.5133 30.7413 75.3147 30.85 75.08 30.9949C74.8452 31.158 74.5383 31.3391 74.1771 31.5021C74.1591 31.5565 74.0688 31.5746 73.9424 31.5746ZM79.0163 31.0674C78.4024 31.0674 78.1135 30.8319 78.1135 30.3609C78.1135 30.0529 78.2218 29.6725 78.4205 29.2015C78.6552 28.7305 78.8899 28.2777 79.1247 27.8248C79.7567 26.6835 80.3525 25.5604 80.8942 24.4735C81.436 23.3866 81.9596 22.2453 82.4652 21.0316C82.6999 20.4882 83.0611 20.2164 83.5305 20.2164C84.0361 20.2164 84.1806 20.5244 83.9819 21.1222C83.7833 21.6294 83.5847 22.0823 83.368 22.4989C82.4291 24.4191 81.9596 25.7234 81.9596 26.4118C81.9596 26.7198 82.0679 26.9009 82.2666 26.9734C82.736 26.593 83.0972 26.3393 83.3319 26.1582C83.5666 25.9589 83.7111 25.8321 83.7291 25.7959C84.1986 25.4155 84.7223 24.9988 85.3001 24.5278C85.914 24.0206 86.5641 23.4409 87.2683 22.8069C88.3878 21.7925 89.3087 21.2852 90.049 21.2852C90.9519 21.2852 91.3491 22.1185 91.2046 23.767C91.1685 24.401 91.1685 25.0351 91.2046 25.651C91.2408 25.7778 91.2588 25.9951 91.2588 26.2669C91.2588 26.5024 91.2588 26.7922 91.2588 27.1364C91.2588 27.4806 91.4574 27.6436 91.8727 27.6436C92.3422 27.6436 92.7756 27.5168 93.1909 27.2451L94.3104 26.4843L95.4299 25.7778C95.5022 25.7415 95.6105 25.7234 95.7911 25.7234C95.9897 25.7234 95.9897 25.8683 95.7911 26.1763C93.6604 28.8211 91.9089 30.1254 90.5365 30.1254C90.2657 30.1254 89.9948 30.071 89.724 29.9805C89.4893 29.8718 89.3267 29.6001 89.2184 29.1109C89.1101 28.6037 89.0559 28.0603 89.0198 27.4806C89.0198 26.9009 89.0198 26.4661 89.0198 26.1582L89.074 24.4916C89.074 23.7851 88.8934 23.4228 88.5142 23.4228C87.6294 23.4228 85.4807 25.2343 82.0499 28.8573C81.779 29.2015 81.3637 29.6544 80.7859 30.2341C80.1539 30.7775 79.5942 31.0674 79.0163 31.0674ZM101.046 19.1476C100.612 19.1476 100.396 19.039 100.396 18.8397C100.396 18.6767 100.522 18.4412 100.757 18.1332C101.028 17.789 101.334 17.4992 101.66 17.2637C102.4 16.7927 102.978 16.376 103.375 16.05C103.808 15.7058 104.332 15.1442 104.946 14.329C104.982 14.4015 105 14.5283 105 14.7276C105 15.1623 104.819 15.7058 104.44 16.3579C104.097 16.9738 103.718 17.5173 103.285 18.0245C102.851 18.5317 102.454 18.8578 102.129 18.9846C101.804 19.0933 101.461 19.1476 101.046 19.1476ZM96.5494 31.5746C96.2786 31.5746 96.0258 31.4659 95.7911 31.2666C95.5563 31.0674 95.4299 30.7957 95.4299 30.4515C95.4299 29.745 95.9174 28.4407 96.8925 26.5386L97.4523 25.4155C97.5245 25.343 97.5967 25.18 97.7051 24.9082C97.8315 24.6365 98.0301 24.2742 98.2648 23.8395C98.4996 23.3685 98.6802 22.9518 98.8246 22.5714C98.951 22.191 99.0593 21.8468 99.1316 21.5026C99.1316 21.4664 99.2038 21.3939 99.3302 21.3033C99.4566 21.1947 99.601 21.1222 99.7274 21.0497L100.034 20.9954C100.305 20.9954 100.522 21.0497 100.684 21.1403C100.883 21.249 100.955 21.3758 100.883 21.5388C100.648 22.0461 100.45 22.4808 100.269 22.8612C100.107 23.2417 99.9622 23.5496 99.8719 23.8213H99.8177C99.4385 24.6727 99.1316 25.4698 98.8607 26.2488C98.626 26.9915 98.5176 27.698 98.5537 28.3863L98.6079 29.7631C98.5718 30.1073 98.4635 30.3971 98.2468 30.6326C98.1204 30.7413 97.9218 30.85 97.687 30.9949C97.4523 31.158 97.1453 31.3391 96.7842 31.5021C96.7661 31.5565 96.6939 31.5746 96.5494 31.5746Z" fill="#A9E8E0"/>
</svg>
