<svg width="32" height="32" viewBox="0 0 32 32" fill="none" xmlns="http://www.w3.org/2000/svg">
<rect width="32" height="32" fill="#8ACFCF"/>
<path d="M10.1287 16.0767C9.91242 16.0767 9.71582 16.0374 9.5487 15.9685C9.05719 15.821 8.54602 15.5063 8.03485 15.0343C7.52368 14.5426 7.07149 13.9526 6.68811 13.274C6.3244 12.5758 6.0983 11.8875 6.02949 11.2089C6.00983 11.1401 6 11.0417 6 10.9336C6 10.8254 6 10.6976 6 10.55C6 8.18007 7.48436 7 10.4629 7C11.9276 7 13.5496 7.22618 15.3092 7.68837C17.0688 8.15057 19.1135 8.76027 21.4433 9.53715C22.0331 9.74366 22.5246 9.90101 22.9276 10.0288C23.3306 10.1567 23.6256 10.2452 23.8123 10.3042C24.4316 10.491 25.0116 10.5795 25.5424 10.5795C26.1323 10.5795 26.5648 10.4714 26.84 10.2452C27.1153 10.0092 27.2431 9.75349 27.2234 9.47815V9.36997C27.2234 9.15363 27.2922 9.03562 27.42 9.03562C27.5675 9.03562 27.7247 9.14379 27.8919 9.36997C27.9607 9.45848 28 9.58632 28 9.75349C28 10.137 27.7936 10.5009 27.3709 10.8254C26.9482 11.1597 26.3092 11.3171 25.4441 11.3171C24.6577 11.3171 23.7828 11.1892 22.8293 10.9336C21.8758 10.6779 20.6372 10.3042 19.1135 9.80266C17.403 9.25196 16.0071 8.83894 14.9062 8.56359C13.8052 8.26858 12.773 8.12107 11.8195 8.12107C9.5782 8.12107 8.16265 9.10446 7.55317 11.0712C7.49419 11.2581 7.47453 11.4646 7.47453 11.7006C7.47453 12.1628 7.59249 12.684 7.82842 13.274C8.084 13.8444 8.39857 14.3558 8.76229 14.818C9.12601 15.2605 9.48972 15.5162 9.83378 15.585H10.0304C10.4727 15.585 10.689 15.6637 10.689 15.8309C10.689 15.8899 10.6399 15.939 10.5514 15.998C10.4334 16.0472 10.2958 16.0767 10.1287 16.0767ZM11.8981 25.9893C11.0331 25.8024 10.6005 25.3402 10.6005 24.583C10.6005 24.2192 10.689 23.7275 10.8758 23.1276C11.0626 22.5966 11.2198 22.1245 11.3673 21.7214C11.5344 21.2985 11.6917 20.9445 11.8391 20.6495C11.9866 20.3544 12.1635 20.0299 12.3601 19.6562C12.5764 19.2924 12.8418 18.8794 13.1269 18.4172L11.7507 19.2137C11.5147 19.3416 11.2985 19.4497 11.1215 19.5481C10.9348 19.6366 10.7775 19.7054 10.63 19.7447C10.6104 19.7447 10.5907 19.7546 10.571 19.7742C10.571 19.7742 10.5612 19.7742 10.5416 19.7742C10.4531 19.7742 10.4039 19.7054 10.4039 19.5579C10.4039 19.3514 10.4727 19.1055 10.6005 18.8105C10.748 18.5155 10.8856 18.3287 11.0134 18.2303C11.2493 18.1025 11.4754 17.9943 11.672 17.896C11.8785 17.8075 12.0456 17.7386 12.193 17.6993C12.252 17.6796 12.311 17.66 12.3896 17.6403C12.4584 17.601 12.5469 17.5715 12.6354 17.5616C12.8025 17.5026 13.0188 17.4239 13.294 17.3158C13.5693 17.1879 13.7855 17.1093 13.9526 17.0994C13.9526 17.0994 14.0214 17.0109 14.1492 16.8241C14.277 16.6176 14.4736 16.3324 14.7292 15.939C15.496 14.7491 15.9777 13.9821 16.1644 13.6576C16.6068 12.8708 17 12.2513 17.3441 11.8088C17.5505 11.5334 17.8257 11.3958 18.1993 11.3958C18.4549 11.3958 18.6908 11.4646 18.9169 11.5924C19.1332 11.7203 19.2511 11.858 19.2511 12.0055C19.2511 12.094 19.2118 12.1726 19.143 12.2218C18.6318 12.6643 18.0125 13.2839 17.2949 14.0902C16.597 14.877 15.9088 15.7227 15.2306 16.6274C16.6953 16.2439 18.0715 16.0472 19.3592 16.0472C19.6542 16.0472 19.8606 16.0767 19.9884 16.1259C20.1358 16.2144 20.2046 16.3029 20.2046 16.3717C20.2046 16.4307 20.1457 16.4996 20.0375 16.5881C19.9786 16.6274 19.9097 16.6569 19.8213 16.6667C19.7525 16.6864 19.664 16.7061 19.5755 16.7257C18.8776 16.7651 18.2681 16.8241 17.7274 16.9224C17.1966 17.0109 16.6756 17.1388 16.1546 17.3059C15.6631 17.4534 15.1028 17.6501 14.4736 17.9156C14.0903 18.4663 13.7659 18.9384 13.5103 19.3219C13.2547 19.6857 13.0384 20.0398 12.8811 20.3643C12.714 20.679 12.5567 21.0231 12.4093 21.4067C12.2618 21.7705 12.1046 22.2327 11.9374 22.7834C11.7507 23.3341 11.6622 23.7766 11.6622 24.1012C11.6622 24.6125 11.8883 24.9272 12.3503 25.0354C12.5174 25.0551 12.5961 25.1436 12.5961 25.3107C12.5961 25.4779 12.5174 25.6352 12.3503 25.7828C12.2127 25.9598 12.0554 26.0286 11.8981 25.9893Z" fill="#333333"/>
</svg>
