<svg width="25" height="25" viewBox="0 0 25 25" fill="none" xmlns="http://www.w3.org/2000/svg">
<g clip-path="url(#clip0_818_5101)">
<path fill-rule="evenodd" clip-rule="evenodd" d="M12.492 24.9372C9.20516 24.9151 6.28699 23.8323 3.67904 21.8594C2.74816 21.155 1.90241 20.3581 1.13072 19.4825C1.10331 19.4513 1.05617 19.4214 1.05305 19.3878C1.04102 19.2671 1.04415 19.1451 1.0415 19.0237C1.14587 19.0405 1.26875 19.0273 1.35172 19.0788C2.04934 19.5133 2.7205 19.9933 3.43544 20.3961C5.50737 21.5631 7.7236 22.3194 10.0788 22.6792C11.3079 22.8667 12.5425 22.9285 13.7766 22.8569C16.1347 22.7203 18.3884 22.1335 20.5332 21.1392C20.8721 20.9821 21.2042 20.8104 21.537 20.6409C21.6981 20.5587 21.8571 20.525 21.9939 20.6693C22.1384 20.8215 22.1322 21.0052 22.0314 21.175C21.9737 21.2726 21.8859 21.3563 21.7998 21.433C19.882 23.1346 17.6389 24.1795 15.137 24.6655C14.2708 24.8338 13.3832 24.8915 12.5052 25C12.5009 24.9791 12.4963 24.9582 12.492 24.9372ZM21.752 19.6307C21.2773 19.6761 20.7506 19.7278 20.2237 19.7759C20.1083 19.7865 19.991 19.7932 19.8755 19.7863C19.7428 19.7783 19.7216 19.6966 19.7943 19.5999C19.8375 19.5422 19.9025 19.4979 19.9638 19.4566C20.5212 19.0824 21.1522 18.9186 21.8061 18.8321C22.4267 18.7498 23.0467 18.7691 23.6534 18.9316C24.0629 19.0413 24.1522 19.0906 24.1216 19.5672C24.0408 20.8232 23.6363 21.9652 22.7257 22.8826C22.679 22.9298 22.635 22.9904 22.5773 23.0132C22.5003 23.0435 22.4111 23.043 22.3272 23.0558C22.3291 22.9793 22.3132 22.8968 22.3361 22.8273C22.5532 22.1667 22.78 21.5093 22.996 20.8485C23.0392 20.716 23.0556 20.5734 23.0722 20.4339C23.1251 19.9883 22.9469 19.7642 22.4739 19.6949C22.2531 19.6627 22.029 19.6545 21.752 19.6307ZM14.5796 9.8126C13.685 9.80756 12.8296 9.84627 12.0113 10.1207C11.6071 10.2563 11.1973 10.4282 10.8493 10.6694C9.88814 11.3353 9.63804 12.3265 9.71716 13.4308C9.759 14.0156 9.93479 14.5569 10.3662 14.9811C10.9792 15.5838 12.0111 15.6629 12.8395 15.1733C13.5616 14.7464 13.9921 14.0878 14.2715 13.3202C14.6832 12.1897 14.5536 11.0119 14.5796 9.8126ZM15.2385 16.4298C14.917 16.7224 14.62 16.9983 14.3172 17.2676C13.1531 18.3028 11.7776 18.7653 10.2335 18.7963C9.39516 18.8131 8.57202 18.7499 7.78734 18.4399C6.3897 17.8875 5.4985 16.8662 5.13706 15.4169C4.68834 13.6169 4.83984 11.8838 5.9049 10.3104C6.69222 9.14745 7.83087 8.45608 9.14555 8.03285C10.2736 7.66973 11.4414 7.51053 12.6137 7.37923C13.257 7.30709 13.901 7.24288 14.5757 7.17194C14.5555 6.36635 14.67 5.55811 14.387 4.77921C14.1361 4.08929 13.6064 3.73459 12.914 3.57587C11.8658 3.33564 10.6776 3.72665 10.1142 4.55317C9.92301 4.8338 9.80614 5.17552 9.70345 5.50425C9.55869 5.9674 9.34563 6.11818 8.86468 6.06095C7.92466 5.94961 6.98247 5.85726 6.04246 5.74737C5.57617 5.69254 5.39125 5.42705 5.48215 4.974C5.89552 2.91216 7.08973 1.47123 9.03325 0.712774C11.3271 -0.182276 13.672 -0.251773 15.9967 0.603117C17.9231 1.31156 18.9812 2.72339 19.1222 4.78378C19.1695 5.47924 19.1763 6.1783 19.1791 6.87592C19.1866 8.68021 19.1953 10.4845 19.1763 12.2885C19.1657 13.2932 19.4444 14.1849 20.0552 14.9783C20.2019 15.1692 20.3505 15.3606 20.4748 15.566C20.6809 15.9065 20.6258 16.1648 20.3279 16.4218C19.5603 17.0841 18.7941 17.7483 18.0285 18.413C17.6069 18.7787 17.3147 18.7737 16.8908 18.4166C16.3322 17.946 15.8733 17.3922 15.4773 16.7823C15.4051 16.6712 15.3289 16.5627 15.2385 16.4298Z" fill="white"/>
</g>
<defs>
<clipPath id="clip0_818_5101">
<rect width="25" height="25" fill="white"/>
</clipPath>
</defs>
</svg>
