<svg width="32" height="33" viewBox="0 0 32 33" fill="none" xmlns="http://www.w3.org/2000/svg">
<path d="M4.3335 3.83203C4.06829 3.83206 3.81395 3.93742 3.62642 4.12495C3.43889 4.31248 3.33352 4.56682 3.3335 4.83203V28.1654C3.33352 28.4306 3.43889 28.6849 3.62642 28.8724C3.81395 29.06 4.06829 29.1653 4.3335 29.1654H27.6668C27.932 29.1653 28.1864 29.06 28.3739 28.8724C28.5614 28.6849 28.6668 28.4306 28.6668 28.1654V4.83203C28.6668 4.56682 28.5614 4.31248 28.3739 4.12495C28.1864 3.93742 27.932 3.83206 27.6668 3.83203H4.3335ZM5.3335 5.83203H26.6668V27.1654H5.3335V5.83203ZM16.0002 7.83203C11.2255 7.83203 7.3335 11.7241 7.3335 16.4987C7.3335 21.2733 11.2255 25.1654 16.0002 25.1654C20.7748 25.1654 24.6668 21.2733 24.6668 16.4987C24.6668 11.7241 20.7748 7.83203 16.0002 7.83203ZM16.0002 9.83203C19.6939 9.83203 22.6668 12.805 22.6668 16.4987C22.6668 20.1924 19.6939 23.1654 16.0002 23.1654C12.3064 23.1654 9.3335 20.1924 9.3335 16.4987C9.3335 12.805 12.3064 9.83203 16.0002 9.83203ZM16.0002 15.1654C15.6465 15.1654 15.3074 15.3058 15.0574 15.5559C14.8073 15.8059 14.6668 16.1451 14.6668 16.4987C14.6668 16.8523 14.8073 17.1915 15.0574 17.4415C15.3074 17.6916 15.6465 17.832 16.0002 17.832C16.3538 17.832 16.6929 17.6916 16.943 17.4415C17.193 17.1915 17.3335 16.8523 17.3335 16.4987C17.3335 16.1451 17.193 15.8059 16.943 15.5559C16.6929 15.3058 16.3538 15.1654 16.0002 15.1654Z" fill="black"/>
</svg>
