<svg width="32" height="33" viewBox="0 0 32 33" fill="none" xmlns="http://www.w3.org/2000/svg">
<path d="M12.6356 5.16807C12.503 5.16619 12.3715 5.19068 12.2485 5.24009C12.1255 5.2895 12.0136 5.36286 11.9193 5.45591C11.8249 5.54895 11.7499 5.65983 11.6988 5.78208C11.6477 5.90434 11.6213 6.03554 11.6213 6.16807C11.6213 6.30059 11.6477 6.4318 11.6988 6.55405C11.7499 6.67631 11.8249 6.78718 11.9193 6.88023C12.0136 6.97327 12.1255 7.04663 12.2485 7.09605C12.3715 7.14546 12.503 7.16994 12.6356 7.16807H22.59C24.0572 7.16807 25.3241 8.35354 25.4949 9.85557L25.4936 9.83343L25.8621 13.8347H14.0001C9.94816 13.8347 6.46891 16.2294 4.96759 20.004C4.9596 20.0233 4.95222 20.0428 4.94545 20.0626L3.04962 25.8569C3.00046 26.007 2.9876 26.1667 3.01206 26.3228C3.03653 26.4789 3.09764 26.627 3.19038 26.755C3.28312 26.8829 3.40486 26.987 3.54561 27.0588C3.68636 27.1306 3.84213 27.1681 4.00014 27.1681H28.0001C28.1392 27.1681 28.2767 27.1391 28.4039 27.083C28.5311 27.0269 28.6452 26.9449 28.7389 26.8422C28.8326 26.7396 28.9039 26.6185 28.9482 26.4867C28.9925 26.3549 29.0089 26.2154 28.9962 26.0769L27.4845 9.64984C27.4837 9.64289 27.4828 9.63594 27.4819 9.62901C27.1994 7.14437 25.1134 5.16807 22.59 5.16807H12.6356ZM14.0001 15.8347H26.0457L26.9038 25.1681H5.37904L6.82956 20.7371C8.0549 17.6641 10.7187 15.8347 14.0001 15.8347ZM16.6668 19.1681C16.3132 19.1681 15.974 19.3085 15.724 19.5586C15.4739 19.8086 15.3335 20.1478 15.3335 20.5014C15.3335 20.855 15.4739 21.1942 15.724 21.4442C15.974 21.6943 16.3132 21.8347 16.6668 21.8347C17.0204 21.8347 17.3596 21.6943 17.6096 21.4442C17.8597 21.1942 18.0001 20.855 18.0001 20.5014C18.0001 20.1478 17.8597 19.8086 17.6096 19.5586C17.3596 19.3085 17.0204 19.1681 16.6668 19.1681Z" fill="black"/>
</svg>
