<svg width="32" height="33" viewBox="0 0 32 33" fill="none" xmlns="http://www.w3.org/2000/svg">
<path d="M2.35053 5.82051C2.20243 5.81757 2.05553 5.84756 1.92044 5.90832C1.78535 5.96908 1.66544 6.05909 1.56938 6.17185C1.47332 6.2846 1.4035 6.41729 1.36498 6.56032C1.32646 6.70335 1.32019 6.85315 1.34662 6.9989L4.12266 23.6564C4.52396 26.0609 6.61775 27.8348 9.05496 27.8348H22.9456C25.3828 27.8348 27.4761 26.0611 27.8766 23.6564L30.6539 6.9989C30.6974 6.73713 30.6352 6.4688 30.4808 6.25294C30.3265 6.03708 30.0928 5.89137 29.831 5.84785C29.5692 5.80434 29.3009 5.8666 29.085 6.02092C28.8692 6.17525 28.7235 6.40901 28.68 6.67077L27.7086 12.5015H27.0003C24.5816 12.5015 23.3623 11.4495 22.0406 10.1278C21.8531 9.94034 21.5988 9.83502 21.3336 9.83502C21.0684 9.83502 20.8141 9.94034 20.6266 10.1278C19.2474 11.507 18.4189 12.5015 16.0003 12.5015C13.5816 12.5015 12.7531 11.507 11.374 10.1278C11.2794 10.0332 11.1669 9.95856 11.043 9.90824C10.9191 9.85792 10.7863 9.83296 10.6526 9.83483C10.3924 9.83864 10.1439 9.94373 9.9599 10.1278C8.63819 11.4495 7.41892 12.5015 5.00027 12.5015H4.29193L3.32058 6.67077C3.28525 6.43735 3.16849 6.22395 2.99096 6.06834C2.81342 5.91273 2.58656 5.82494 2.35053 5.82051ZM10.6435 12.1122C11.8929 13.3017 13.3859 14.5015 16.0003 14.5015C18.6147 14.5015 20.1076 13.3017 21.357 12.1122C22.7014 13.328 24.3816 14.5015 27.0003 14.5015H27.3753L25.9039 23.3283C25.6617 24.7823 24.419 25.8348 22.9456 25.8348H9.05496C7.58207 25.8348 6.34001 24.7817 6.09662 23.3283L4.62527 14.5015H5.00027C7.61893 14.5015 9.29915 13.328 10.6435 12.1122ZM16.0003 18.5015C15.6466 18.5015 15.3075 18.642 15.0575 18.892C14.8074 19.1421 14.6669 19.4812 14.6669 19.8348C14.6669 20.1885 14.8074 20.5276 15.0575 20.7776C15.3075 21.0277 15.6466 21.1682 16.0003 21.1682C16.3539 21.1682 16.693 21.0277 16.9431 20.7776C17.1931 20.5276 17.3336 20.1885 17.3336 19.8348C17.3336 19.4812 17.1931 19.1421 16.9431 18.892C16.693 18.642 16.3539 18.5015 16.0003 18.5015Z" fill="black"/>
</svg>
