<svg width="41" height="40" viewBox="0 0 41 40" fill="none" xmlns="http://www.w3.org/2000/svg">
<path d="M9.875 28.4828V24.6094C9.875 23.9622 9.35031 23.4375 8.70313 23.4375C8.05594 23.4375 7.53125 23.9622 7.53125 24.6094V28.4828C6.16727 28.9666 5.1875 30.2691 5.1875 31.7969C5.1875 33.7354 6.76461 35.3125 8.70313 35.3125C10.6416 35.3125 12.2188 33.7354 12.2188 31.7969C12.2188 30.2691 11.239 28.9666 9.875 28.4828ZM8.70313 32.9687C8.05695 32.9687 7.53125 32.443 7.53125 31.7969C7.53125 31.1507 8.05695 30.625 8.70313 30.625C9.3493 30.625 9.875 31.1507 9.875 31.7969C9.875 32.443 9.3493 32.9687 8.70313 32.9687Z" fill="white"/>
<path d="M16.5156 7.03125C17.1628 7.03125 17.6875 6.50656 17.6875 5.85938C17.6875 5.21219 17.1628 4.6875 16.5156 4.6875H14.4446C13.9002 2.01625 11.5328 0 8.70312 0C5.47227 0 2.84375 2.62852 2.84375 5.85938V26.0672C1.3482 27.5965 0.5 29.6558 0.5 31.7969C0.5 36.3201 4.17992 40 8.70312 40C13.2263 40 16.9062 36.3201 16.9062 31.7969C16.9062 29.6558 16.058 27.5965 14.5625 26.0672V25.7812H16.5156C17.1628 25.7812 17.6875 25.2566 17.6875 24.6094C17.6875 23.9622 17.1628 23.4375 16.5156 23.4375H14.5625V21.0938H16.5156C17.1628 21.0938 17.6875 20.5691 17.6875 19.9219C17.6875 19.2747 17.1628 18.75 16.5156 18.75H14.5625V16.4062H16.5156C17.1628 16.4062 17.6875 15.8816 17.6875 15.2344C17.6875 14.5872 17.1628 14.0625 16.5156 14.0625H14.5625V11.7188H16.5156C17.1628 11.7188 17.6875 11.1941 17.6875 10.5469C17.6875 9.89969 17.1628 9.375 16.5156 9.375H14.5625V7.03125H16.5156ZM8.70312 37.6562C5.47227 37.6562 2.84375 35.0277 2.84375 31.7969C2.84375 30.1413 3.55602 28.5529 4.79805 27.4391C5.04594 27.2168 5.1875 26.8996 5.1875 26.5666V5.85938C5.1875 3.92086 6.76461 2.34375 8.70312 2.34375C10.6416 2.34375 12.2188 3.92086 12.2188 5.85938V26.5666C12.2188 26.8996 12.3603 27.2168 12.6082 27.4391C13.8502 28.5529 14.5625 30.1413 14.5625 31.7969C14.5625 35.0277 11.934 37.6562 8.70312 37.6562Z" fill="white"/>
<path d="M39.3281 9.375H38.251L38.9849 8.64109C39.4426 8.18344 39.4426 7.44148 38.9849 6.98383C38.5273 6.52617 37.7853 6.52617 37.3277 6.98383L34.9365 9.375H32.7823L34.2974 7.85984C34.7551 7.40219 34.7551 6.66023 34.2974 6.20258C33.8398 5.74492 33.0978 5.74492 32.6402 6.20258L31.125 7.71773V5.56352L33.5161 3.17242C33.9737 2.71477 33.9737 1.97281 33.5161 1.51516C33.0584 1.0575 32.3165 1.0575 31.8588 1.51516L31.125 2.24898V1.17188C31.125 0.524687 30.6003 0 29.9531 0C29.3059 0 28.7812 0.524687 28.7812 1.17188V2.24898L28.0473 1.51508C27.5897 1.05742 26.8477 1.05742 26.3901 1.51508C25.9324 1.97273 25.9324 2.71469 26.3901 3.17234L28.7812 5.56352V7.71773L27.2661 6.20258C26.8084 5.74492 26.0665 5.74492 25.6088 6.20258C25.1512 6.66023 25.1512 7.40219 25.6088 7.85984L27.124 9.375H24.9698L22.5787 6.98391C22.121 6.52625 21.3791 6.52625 20.9214 6.98391C20.4638 7.44156 20.4638 8.18352 20.9214 8.64117L21.6553 9.37508H20.5781C19.9309 9.37508 19.4062 9.89977 19.4062 10.547C19.4062 11.1941 19.9309 11.7188 20.5781 11.7188H21.6552L20.9213 12.4527C20.4637 12.9104 20.4637 13.6523 20.9213 14.11C21.379 14.5677 22.1209 14.5677 22.5786 14.11L24.9698 11.7188H27.124L25.6088 13.2339C25.1512 13.6916 25.1512 14.4335 25.6088 14.8912C26.0665 15.3488 26.8084 15.3488 27.2661 14.8912L28.7812 13.376V15.5302L26.3902 17.9213C25.9325 18.379 25.9325 19.1209 26.3902 19.5786C26.8478 20.0363 27.5898 20.0363 28.0474 19.5786L28.7813 18.8447V19.9219C28.7813 20.5691 29.306 21.0938 29.9532 21.0938C30.6004 21.0938 31.1251 20.5691 31.1251 19.9219V18.8448L31.859 19.5787C32.3166 20.0363 33.0586 20.0363 33.5163 19.5787C33.9739 19.121 33.9739 18.3791 33.5163 17.9214L31.125 15.5302V13.376L32.6402 14.8912C33.0978 15.3488 33.8398 15.3488 34.2974 14.8912C34.7551 14.4335 34.7551 13.6916 34.2974 13.2339L32.7823 11.7188H34.9365L37.3276 14.1098C37.7852 14.5675 38.5272 14.5675 38.9848 14.1098C39.4425 13.6522 39.4425 12.9102 38.9848 12.4526L38.251 11.7188H39.3281C39.9753 11.7188 40.5 11.1941 40.5 10.5469C40.5 9.89969 39.9753 9.375 39.3281 9.375Z" fill="white"/>
</svg>
