<svg width="40" height="36" viewBox="0 0 40 36" fill="none" xmlns="http://www.w3.org/2000/svg">
<path d="M39.1959 34.1637H35.7598V32.3179C35.7598 31.2863 35.2114 30.3808 34.3913 29.8776V21.0586H37.0877C37.5186 21.0586 37.868 20.7087 37.868 20.2773V11.9081C37.868 11.4767 37.5186 11.1269 37.0877 11.1269H34.3913V10.89C34.3913 8.77015 32.6688 7.04562 30.5516 7.04562H25.3238V4.0082C25.3238 2.98391 24.4915 2.15062 23.4684 2.15062H23.0521V1.05859C23.0521 0.627187 22.7027 0.277344 22.2718 0.277344C21.8409 0.277344 21.4915 0.627187 21.4915 1.05859V2.15062H21.0752C20.6931 2.15062 20.3377 2.26695 20.0423 2.46594L11.58 6.57922V4.49883C11.58 4.06742 11.2307 3.71758 10.7997 3.71758C10.3688 3.71758 10.0194 4.06742 10.0194 4.49883V7.04562H7.91661C4.69772 7.04562 2.07889 9.66758 2.07889 12.8903V19.634C2.07889 20.0654 2.42824 20.4152 2.85921 20.4152H5.37675V22.432C5.37675 22.8634 5.7261 23.2133 6.15707 23.2133C6.58804 23.2133 6.93739 22.8634 6.93739 22.432V20.4152H9.45493C9.8859 20.4152 10.2352 20.0654 10.2352 19.634V16.5172L10.6045 15.6989C11.1456 14.5001 12.3441 13.7255 13.658 13.7255H17.0129C19.1861 13.7255 21.022 15.5635 21.022 17.7393V20.9787C21.022 22.0735 20.8048 23.1393 20.3764 24.1467L18.1182 29.4577H2.88059C1.30544 29.4578 0.0239258 30.7409 0.0239258 32.3179V34.945C0.0239258 35.3764 0.373274 35.7262 0.804244 35.7262H14.484C14.915 35.7262 15.2643 35.3764 15.2643 34.945C15.2643 34.5136 14.915 34.1637 14.484 34.1637H1.58456V32.3179C1.58456 31.6024 2.16598 31.0203 2.88059 31.0203H32.903C33.6176 31.0203 34.199 31.6024 34.199 32.3179V34.1637H21.3474C20.9165 34.1637 20.567 34.5136 20.567 34.945C20.567 35.3764 20.9165 35.7262 21.3474 35.7262H39.1959C39.6268 35.7262 39.9762 35.3764 39.9762 34.945C39.9762 34.5136 39.6268 34.1637 39.1959 34.1637ZM36.3073 12.6894V19.4961H34.3912V12.6894H36.3073ZM23.7632 4.0082V7.04562H20.7804V4.0082C20.7804 3.84547 20.9126 3.71312 21.0751 3.71312H23.4683C23.6309 3.71305 23.7632 3.84547 23.7632 4.0082ZM19.2197 4.60258V7.04562H14.1936L19.2197 4.60258ZM8.67453 18.8528H3.63945V17.1302H8.67453V18.8528ZM19.8143 29.4578L21.8124 24.7588C22.3235 23.5569 22.5826 22.2851 22.5826 20.9787V17.7394C22.5826 14.7167 20.032 12.163 17.0129 12.163H13.658C11.7321 12.163 9.97532 13.2984 9.18236 15.0556L8.95131 15.5677H3.63945V12.8903C3.63945 10.5291 5.5581 8.60812 7.91653 8.60812H30.5516C31.8082 8.60812 32.8307 9.6318 32.8307 10.89V20.2773V29.4578H19.8143Z" fill="white"/>
</svg>
