<svg width="32" height="33" viewBox="0 0 32 33" fill="none" xmlns="http://www.w3.org/2000/svg">
<path d="M15.9994 3.16797C8.64609 3.16797 2.66609 9.14797 2.66609 16.5013C2.66609 19.0946 3.40547 21.521 4.69214 23.5677L6.15958 22.1016C5.20625 20.4482 4.66609 18.5346 4.66609 16.5013C4.66609 10.2546 9.75276 5.16797 15.9994 5.16797C18.0328 5.16797 19.9464 5.70812 21.5997 6.66146L23.0658 5.19401C21.0192 3.90734 18.5928 3.16797 15.9994 3.16797ZM28.3328 3.16797C28.0794 3.16797 27.8191 3.2676 27.6257 3.46094L24.6921 6.39453L23.2663 7.82161L7.31974 23.7682L5.89266 25.194L2.95906 28.1276C2.56573 28.5209 2.56573 29.1483 2.95906 29.5417C3.1524 29.735 3.41276 29.8346 3.66609 29.8346C3.91943 29.8346 4.17979 29.735 4.37312 29.5417L7.30672 26.6081C7.81338 27.0481 8.35969 27.4486 8.93302 27.8086C10.9797 29.0953 13.4061 29.8346 15.9994 29.8346C23.3528 29.8346 29.3328 23.8546 29.3328 16.5013C29.3328 13.908 28.5934 11.4816 27.3067 9.4349C26.9467 8.86156 26.5462 8.31526 26.1062 7.80859L29.0398 4.875C29.4331 4.48167 29.4331 3.85427 29.0398 3.46094C28.8465 3.2676 28.5861 3.16797 28.3328 3.16797ZM24.6791 9.23437C25.1191 9.75437 25.5059 10.3077 25.8393 10.901C26.7926 12.5544 27.3328 14.468 27.3328 16.5013C27.3328 22.748 22.2461 27.8346 15.9994 27.8346C13.9661 27.8346 12.0525 27.2945 10.3992 26.3411C9.80583 26.0078 9.2525 25.621 8.7325 25.181L24.6791 9.23437Z" fill="black"/>
</svg>
