<svg width="40" height="40" viewBox="0 0 40 40" fill="none" xmlns="http://www.w3.org/2000/svg">
<path d="M8.88889 36.0556H9.38889V35.5556V31.1111V30.6111H8.88889H4.44444H3.94444V31.1111V35.5556V36.0556H4.44444H8.88889ZM8.88889 27.1667H9.38889V26.6667V22.2222V21.7222H8.88889H4.44444H3.94444V22.2222V26.6667V27.1667H4.44444H8.88889ZM8.88889 18.2778H9.38889V17.7778V13.3333V12.8333H8.88889H4.44444H3.94444V13.3333V17.7778V18.2778H4.44444H8.88889ZM8.88889 9.38889H9.38889V8.88889V4.44444V3.94444H8.88889H4.44444H3.94444V4.44444V8.88889V9.38889H4.44444H8.88889ZM17.7778 36.0556H18.2778V35.5556V31.1111V30.6111H17.7778H13.3333H12.8333V31.1111V35.5556V36.0556H13.3333H17.7778ZM17.7778 27.1667H18.2778V26.6667V22.2222V21.7222H17.7778H13.3333H12.8333V22.2222V26.6667V27.1667H13.3333H17.7778ZM17.7778 18.2778H18.2778V17.7778V13.3333V12.8333H17.7778H13.3333H12.8333V13.3333V17.7778V18.2778H13.3333H17.7778ZM17.7778 9.38889H18.2778V8.88889V4.44444V3.94444H17.7778H13.3333H12.8333V4.44444V8.88889V9.38889H13.3333H17.7778ZM26.6667 36.0556H27.1667V35.5556V31.1111V30.6111H26.6667H22.2222H21.7222V31.1111V35.5556V36.0556H22.2222H26.6667ZM26.6667 27.1667H27.1667V26.6667V22.2222V21.7222H26.6667H22.2222H21.7222V22.2222V26.6667V27.1667H22.2222H26.6667ZM26.6667 18.2778H27.1667V17.7778V13.3333V12.8333H26.6667H22.2222H21.7222V13.3333V17.7778V18.2778H22.2222H26.6667ZM26.6667 9.38889H27.1667V8.88889V4.44444V3.94444H26.6667H22.2222H21.7222V4.44444V8.88889V9.38889H22.2222H26.6667ZM35.5556 36.0556H36.0556V35.5556V31.1111V30.6111H35.5556H31.1111H30.6111V31.1111V35.5556V36.0556H31.1111H35.5556ZM35.5556 27.1667H36.0556V26.6667V22.2222V21.7222H35.5556H31.1111H30.6111V22.2222V26.6667V27.1667H31.1111H35.5556ZM35.5556 18.2778H36.0556V17.7778V13.3333V12.8333H35.5556H31.1111H30.6111V13.3333V17.7778V18.2778H31.1111H35.5556ZM35.5556 9.38889H36.0556V8.88889V4.44444V3.94444H35.5556H31.1111H30.6111V4.44444V8.88889V9.38889H31.1111H35.5556ZM2.22222 0.5H37.7778C38.7289 0.5 39.5 1.2711 39.5 2.22222V37.7778C39.5 38.7289 38.7289 39.5 37.7778 39.5H2.22222C1.2711 39.5 0.5 38.7289 0.5 37.7778V2.22222C0.5 1.27111 1.27111 0.5 2.22222 0.5Z" fill="white" stroke="#144C45"/>
</svg>
