<svg width="40" height="40" viewBox="0 0 40 40" fill="none" xmlns="http://www.w3.org/2000/svg">
<path d="M39.1567 19.1714L36.0317 16.0464C35.5741 15.5887 34.8321 15.5887 34.3745 16.0464C33.9168 16.504 33.9168 17.246 34.3745 17.7036L35.499 18.8282H31.2969C30.6497 18.8282 30.125 19.3528 30.125 20C30.125 20.6472 30.6497 21.1719 31.2969 21.1719H35.499L34.3745 22.2964C33.9168 22.7541 33.9168 23.496 34.3745 23.9537C34.8321 24.4114 35.5741 24.4114 36.0317 23.9537L39.1567 20.8287C39.6144 20.3711 39.6144 19.629 39.1567 19.1714Z" fill="white"/>
<path d="M28.9531 11.0156H33.1552L32.0307 12.1401C31.573 12.5978 31.573 13.3397 32.0307 13.7974C32.4884 14.255 33.2303 14.255 33.688 13.7974L36.813 10.6724C37.2706 10.2148 37.2706 9.47277 36.813 9.01511L33.688 5.89012C33.2303 5.43246 32.4884 5.43246 32.0307 5.89012C31.573 6.34777 31.573 7.08973 32.0307 7.54738L33.1552 8.67183H28.9531C28.3059 8.67183 27.7812 9.19652 27.7812 9.84371C27.7812 10.4909 28.3059 11.0156 28.9531 11.0156Z" fill="white"/>
<path d="M33.688 26.2026C33.2303 25.745 32.4884 25.745 32.0307 26.2026C31.573 26.6603 31.573 27.4022 32.0307 27.8599L33.1552 28.9844H28.9531C28.3059 28.9844 27.7812 29.5091 27.7812 30.1563C27.7812 30.8035 28.3059 31.3282 28.9531 31.3282H33.1552L32.0307 32.4527C31.573 32.9103 31.573 33.6523 32.0307 34.11C32.4884 34.5676 33.2303 34.5676 33.688 34.11L36.813 30.985C37.2706 30.5274 37.2706 29.7853 36.813 29.3277L33.688 26.2026Z" fill="white"/>
<path d="M0.671874 14.9219C1.31908 14.9219 1.84375 14.3972 1.84375 13.75C1.84375 13.1028 1.31908 12.5781 0.671874 12.5781C0.024666 12.5781 -0.5 13.1028 -0.5 13.75C-0.5 14.3972 0.024666 14.9219 0.671874 14.9219Z" fill="white"/>
<path d="M6.53125 10.625C7.17846 10.625 7.70312 10.1003 7.70312 9.45312C7.70312 8.80592 7.17846 8.28125 6.53125 8.28125C5.88404 8.28125 5.35938 8.80592 5.35938 9.45312C5.35938 10.1003 5.88404 10.625 6.53125 10.625Z" fill="white"/>
<path d="M9.65576 17.6562C10.303 17.6562 10.8276 17.1316 10.8276 16.4844C10.8276 15.8372 10.303 15.3125 9.65576 15.3125C9.00855 15.3125 8.48389 15.8372 8.48389 16.4844C8.48389 17.1316 9.00855 17.6562 9.65576 17.6562Z" fill="white"/>
<path d="M0.671874 27.4219C1.31908 27.4219 1.84375 26.8972 1.84375 26.25C1.84375 25.6028 1.31908 25.0781 0.671874 25.0781C0.024666 25.0781 -0.5 25.6028 -0.5 26.25C-0.5 26.8972 0.024666 27.4219 0.671874 27.4219Z" fill="white"/>
<path d="M6.53125 31.7187C7.17846 31.7187 7.70312 31.1941 7.70312 30.5469C7.70312 29.8997 7.17846 29.375 6.53125 29.375C5.88404 29.375 5.35938 29.8997 5.35938 30.5469C5.35938 31.1941 5.88404 31.7187 6.53125 31.7187Z" fill="white"/>
<path d="M9.65576 24.6875C10.303 24.6875 10.8276 24.1628 10.8276 23.5156C10.8276 22.8684 10.303 22.3438 9.65576 22.3438C9.00855 22.3438 8.48389 22.8684 8.48389 23.5156C8.48389 24.1628 9.00855 24.6875 9.65576 24.6875Z" fill="white"/>
<path d="M3.40625 21.1719C4.05346 21.1719 4.57812 20.6472 4.57812 20C4.57812 19.3528 4.05346 18.8281 3.40625 18.8281C2.75904 18.8281 2.23438 19.3528 2.23438 20C2.23438 20.6472 2.75904 21.1719 3.40625 21.1719Z" fill="white"/>
<path d="M19.4219 21.1719C20.0691 21.1719 20.5937 20.6472 20.5937 20C20.5937 19.3528 20.0691 18.8281 19.4219 18.8281C18.7747 18.8281 18.25 19.3528 18.25 20C18.25 20.6472 18.7747 21.1719 19.4219 21.1719Z" fill="white"/>
<path d="M19.4219 10.625C20.0691 10.625 20.5937 10.1003 20.5937 9.45312C20.5937 8.80592 20.0691 8.28125 19.4219 8.28125C18.7747 8.28125 18.25 8.80592 18.25 9.45312C18.25 10.1003 18.7747 10.625 19.4219 10.625Z" fill="white"/>
<path d="M19.4219 31.7187C20.0691 31.7187 20.5937 31.1941 20.5937 30.5469C20.5937 29.8997 20.0691 29.375 19.4219 29.375C18.7747 29.375 18.25 29.8997 18.25 30.5469C18.25 31.1941 18.7747 31.7187 19.4219 31.7187Z" fill="white"/>
<path d="M23.7383 0.061017L14.3633 3.18586C13.8847 3.34539 13.562 3.7932 13.562 4.29758V35.7024C13.562 36.2068 13.8847 36.6546 14.3633 36.8141L23.7383 39.939C24.4972 40.1919 25.2808 39.6271 25.2808 38.8273V1.17273C25.2808 0.372892 24.4971 -0.191873 23.7383 0.061017ZM22.937 37.2015L15.9058 34.8578V5.14219L22.937 2.79852V37.2015Z" fill="white"/>
</svg>
