<svg width="40" height="40" viewBox="0 0 40 40" fill="none" xmlns="http://www.w3.org/2000/svg">
<g clip-path="url(#clip0_809_4802)">
<path d="M19.8327 22.4889C20.1347 22.6041 20.4735 22.4523 20.5887 22.1498L20.8081 21.5739H22.3419L22.5586 22.1482C22.6471 22.3828 22.8701 22.5274 23.1069 22.5274C23.1756 22.5274 23.2455 22.5152 23.3137 22.4895C23.6164 22.3753 23.7692 22.0373 23.6549 21.7345L22.2102 17.9062C22.2082 17.9008 22.206 17.8953 22.2038 17.8899C22.0994 17.6364 21.8548 17.4727 21.5806 17.4727C21.5805 17.4727 21.5802 17.4727 21.58 17.4727C21.3055 17.4729 21.061 17.637 20.957 17.8909C20.9551 17.8955 20.9533 17.9001 20.9516 17.9047L19.4936 21.7328C19.3784 22.0352 19.5302 22.3738 19.8327 22.4889ZM21.8996 20.4021H21.2545L21.5785 19.5513L21.8996 20.4021Z" fill="white"/>
<path d="M25.291 22.5273C25.6147 22.5273 25.877 22.265 25.877 21.9413V19.9454L27.4295 22.1936C27.5977 22.4365 27.8798 22.5395 28.1483 22.4556C28.4213 22.3702 28.5978 22.117 28.5978 21.8049L28.5615 18.053C28.5583 17.7293 28.2932 17.4712 27.9699 17.4727C27.6463 17.4758 27.3865 17.7407 27.3896 18.0642L27.4094 20.1023L25.7732 17.7329C25.6275 17.5219 25.3616 17.4303 25.1166 17.5065C24.8719 17.5828 24.7051 17.8095 24.7051 18.0659V21.9413C24.7051 22.2649 24.9673 22.5273 25.291 22.5273Z" fill="white"/>
<path d="M30.4385 22.5273C30.7621 22.5273 31.0244 22.2651 31.0244 21.9414V18.0586C31.0244 17.7349 30.7621 17.4727 30.4385 17.4727C30.1149 17.4727 29.8525 17.7349 29.8525 18.0586V21.9413C29.8525 22.265 30.1149 22.5273 30.4385 22.5273Z" fill="white"/>
<path d="M16.4239 22.5273C17.7557 22.5273 18.6858 21.488 18.6858 20C18.6858 19.6763 18.4235 19.4141 18.0998 19.4141H16.9383C16.6146 19.4141 16.3523 19.6763 16.3523 20C16.3523 20.3237 16.6146 20.5859 16.9383 20.5859H17.4291C17.2936 21.0146 16.9846 21.3555 16.4239 21.3555C15.6766 21.3555 15.0684 20.7474 15.0684 20C15.0684 19.2526 15.6765 18.6445 16.4239 18.6445C16.6956 18.6445 16.9575 18.7244 17.1813 18.8756C17.4495 19.0566 17.8137 18.9862 17.9948 18.718C18.1759 18.4498 18.1055 18.0856 17.8373 17.9045C17.4189 17.622 16.9302 17.4727 16.4238 17.4727C15.0302 17.4727 13.8965 18.6064 13.8965 20C13.8965 21.3936 15.0303 22.5273 16.4239 22.5273Z" fill="white"/>
<path d="M34.8066 22.5273C35.3664 22.5273 35.8695 22.3427 36.2621 21.9933C36.3388 21.9248 36.4118 21.8496 36.4787 21.7698C36.6866 21.5219 36.6542 21.1523 36.4062 20.9444C36.1582 20.7366 35.7887 20.7689 35.5808 21.0169C35.5501 21.0534 35.517 21.0877 35.4826 21.1184C35.3059 21.2757 35.0784 21.3555 34.8067 21.3555C34.0593 21.3555 33.4513 20.7474 33.4513 20C33.4513 19.2526 34.0593 18.6445 34.8067 18.6445C35.0784 18.6445 35.3403 18.7244 35.5641 18.8756C35.8323 19.0566 36.1966 18.9862 36.3777 18.718C36.5587 18.4498 36.4883 18.0856 36.2201 17.9045C35.8018 17.622 35.313 17.4727 34.8066 17.4727C33.413 17.4727 32.2793 18.6064 32.2793 20C32.2793 21.3936 33.413 22.5273 34.8066 22.5273Z" fill="white"/>
<path d="M10.1991 22.5273C10.5227 22.5273 10.785 22.265 10.785 21.9413V21.1087L11.8585 22.3284C11.9743 22.4601 12.1361 22.5273 12.2986 22.5273C12.4361 22.5273 12.5741 22.4791 12.6855 22.3812C12.9284 22.1674 12.952 21.7971 12.7382 21.5542L11.8506 20.5457C12.4559 20.3087 12.8844 19.736 12.8844 19.0677C12.8844 18.1881 12.1433 17.4727 11.2323 17.4727H10.2005C10.2002 17.4727 10.2 17.4727 10.1998 17.4727C10.1996 17.4727 10.1995 17.4727 10.1992 17.4727C9.87555 17.4727 9.61328 17.7349 9.61328 18.0586V21.9413C9.61313 22.2649 9.87539 22.5273 10.1991 22.5273ZM11.2321 18.6445C11.4924 18.6445 11.7123 18.8382 11.7123 19.0676C11.7123 19.297 11.4924 19.4908 11.2321 19.4908C11.1263 19.4908 10.9592 19.4914 10.7902 19.4922C10.7895 19.329 10.7885 18.8161 10.788 18.6445H11.2321Z" fill="white"/>
<path d="M5.91219 22.5273C7.30578 22.5273 8.43953 21.3936 8.43953 20C8.43953 18.6064 7.30578 17.4727 5.91219 17.4727C4.51859 17.4727 3.38477 18.6064 3.38477 20C3.38477 21.3936 4.51859 22.5273 5.91219 22.5273ZM5.91219 18.6445C6.65953 18.6445 7.26766 19.2526 7.26766 20C7.26766 20.7474 6.65961 21.3555 5.91219 21.3555C5.16477 21.3555 4.55664 20.7474 4.55664 20C4.55664 19.2526 5.16469 18.6445 5.91219 18.6445Z" fill="white"/>
<path d="M34.1422 5.85781C30.3647 2.08039 25.3422 0 20 0C15.1248 0 10.4284 1.77414 6.77594 4.99547C6.53328 5.20953 6.51008 5.57977 6.72406 5.8225C6.9382 6.06523 7.30844 6.08836 7.55109 5.87438C10.9894 2.84195 15.4105 1.17188 20 1.17188C28.3724 1.17188 35.4848 6.66555 37.9248 14.237H36.4331C35.277 10.9341 33.1785 8.09039 30.3432 5.99297C27.3324 3.76578 23.7558 2.58859 20 2.58859C16.2442 2.58859 12.6676 3.76578 9.6568 5.99297C6.82156 8.09039 4.72305 10.9342 3.56687 14.237H2.07586C2.83422 11.8773 4.05609 9.67242 5.68969 7.76383C5.90008 7.51797 5.87133 7.14805 5.62555 6.93766C5.37969 6.72734 5.00984 6.75609 4.79938 7.0018C1.70437 10.6178 0 15.234 0 20C0 25.3422 2.08039 30.3647 5.85781 34.1422C9.63531 37.9196 14.6578 40 20 40C25.3422 40 30.3647 37.9196 34.1422 34.1422C37.9196 30.3647 40 25.3422 40 20C40 14.6578 37.9196 9.63531 34.1422 5.85781ZM20 3.76047C26.7995 3.76047 32.8025 7.93789 35.1859 14.237H4.81414C7.1975 7.93781 13.2005 3.76047 20 3.76047ZM38.2609 15.4088C38.6307 16.879 38.8281 18.4168 38.8281 20C38.8281 21.5832 38.6307 23.121 38.2609 24.5912H10.0923C9.76859 24.5912 9.50633 24.8534 9.50633 25.1771C9.50633 25.5008 9.76859 25.763 10.0923 25.763H35.1859C32.8025 32.0622 26.7995 36.2396 20 36.2396C13.2005 36.2396 7.1975 32.0622 4.81414 25.763H7.35789C7.68148 25.763 7.94383 25.5008 7.94383 25.1771C7.94383 24.8534 7.68148 24.5912 7.35789 24.5912H1.73906C1.3693 23.121 1.17188 21.5832 1.17188 20C1.17188 18.4413 1.36594 16.8998 1.74078 15.4088H38.2609ZM20 38.8281C11.6276 38.8281 4.51523 33.3345 2.07516 25.763H3.56687C4.72305 29.0659 6.82148 31.9096 9.6568 34.007C12.6675 36.2342 16.2441 37.4114 20 37.4114C23.7559 37.4114 27.3324 36.2342 30.3432 34.007C33.1785 31.9096 35.2769 29.0659 36.4331 25.763H37.9248C35.4848 33.3345 28.3724 38.8281 20 38.8281Z" fill="white"/>
<path d="M24.7326 6.32072C23.1965 5.91314 21.5453 6.35689 20.4233 7.47885C20.2698 7.63228 20.1289 7.79564 20.0005 7.96799C19.8725 7.79682 19.7314 7.63314 19.577 7.47877C18.455 6.35689 16.8037 5.91299 15.2677 6.3208C14.8384 6.43478 14.501 6.77213 14.3872 7.20135C13.9794 8.73744 14.4233 10.3887 15.5452 11.5106C16.3991 12.3645 17.5323 12.8211 18.6968 12.8211C19.1312 12.8211 19.5699 12.7567 20.0002 12.6264C20.4305 12.7567 20.8691 12.8211 21.3036 12.8211C22.4679 12.8211 23.6012 12.3644 24.4551 11.5106C25.5771 10.3887 26.0209 8.73744 25.6132 7.20135C25.4994 6.77228 25.1619 6.43486 24.7326 6.32072ZM16.3738 10.682C15.5461 9.85432 15.2189 8.6358 15.5197 7.50197C15.526 7.4783 15.5446 7.45971 15.5683 7.45346C16.7023 7.15252 17.9206 7.47986 18.7483 8.30744C19.5962 9.15541 19.9131 10.377 19.5921 11.5257C18.4433 11.8464 17.2219 11.53 16.3738 10.682ZM23.6264 10.682C22.9526 11.3559 22.0429 11.6924 21.1208 11.6418L22.704 10.0586C22.9329 9.82971 22.9329 9.45877 22.704 9.22994C22.4751 9.00119 22.1042 9.00119 21.8753 9.22994L20.8694 10.2359C20.8368 9.86939 20.7593 9.50877 20.6377 9.16221C20.7958 8.84541 21.0012 8.5583 21.2519 8.3076C22.0797 7.47986 23.2985 7.15283 24.4317 7.45338C24.4555 7.45971 24.4742 7.4783 24.4805 7.50205C24.7814 8.6358 24.4542 9.85432 23.6264 10.682Z" fill="white"/>
<path d="M19.9998 30.9401C21.0366 30.9401 21.8799 30.0966 21.8799 29.0599C21.8799 28.0232 21.0366 27.1797 19.9998 27.1797C18.9631 27.1797 18.1196 28.0231 18.1196 29.0598C18.1196 30.0966 18.9631 30.9401 19.9998 30.9401ZM19.9998 28.3516C20.3903 28.3516 20.7081 28.6693 20.7081 29.0598C20.7081 29.4504 20.3903 29.7681 19.9998 29.7681C19.6092 29.7681 19.2915 29.4504 19.2915 29.0598C19.2915 28.6693 19.6092 28.3516 19.9998 28.3516Z" fill="white"/>
<path d="M14.823 30.9401C15.8598 30.9401 16.7032 30.0966 16.7032 29.0599C16.7032 28.0232 15.8598 27.1797 14.823 27.1797C13.7863 27.1797 12.9429 28.0231 12.9429 29.0598C12.9429 30.0966 13.7863 30.9401 14.823 30.9401ZM14.823 28.3516C15.2136 28.3516 15.5313 28.6693 15.5313 29.0598C15.5313 29.4504 15.2136 29.7681 14.823 29.7681C14.4325 29.7681 14.1147 29.4504 14.1147 29.0598C14.1147 28.6693 14.4325 28.3516 14.823 28.3516Z" fill="white"/>
<path d="M25.1771 30.9401C26.2139 30.9401 27.0573 30.0966 27.0573 29.0599C27.0573 28.0232 26.2138 27.1797 25.1771 27.1797C24.1404 27.1797 23.2969 28.0231 23.2969 29.0599C23.2969 30.0967 24.1403 30.9401 25.1771 30.9401ZM25.1771 28.3516C25.5677 28.3516 25.8854 28.6693 25.8854 29.0598C25.8854 29.4504 25.5677 29.7681 25.1771 29.7681C24.7866 29.7681 24.4688 29.4504 24.4688 29.0598C24.4688 28.6693 24.7866 28.3516 25.1771 28.3516Z" fill="white"/>
</g>
<defs>
<clipPath id="clip0_809_4802">
<rect width="40" height="40" fill="white"/>
</clipPath>
</defs>
</svg>
