<svg width="32" height="33" viewBox="0 0 32 33" fill="none" xmlns="http://www.w3.org/2000/svg">
<path d="M15.9722 3.83241C15.7969 3.83717 15.626 3.88791 15.4765 3.97955C15.3271 4.07119 15.2043 4.20051 15.1206 4.35455L10.9735 11.9756L3.46046 7.93918C3.3446 7.87446 3.21702 7.83345 3.08515 7.81854C2.95328 7.80363 2.81976 7.81511 2.69237 7.85231C2.56498 7.88952 2.44627 7.95171 2.34316 8.03525C2.24005 8.1188 2.15459 8.22203 2.09178 8.33893C2.02896 8.45584 1.99004 8.58407 1.97729 8.71617C1.96453 8.84826 1.97819 8.98158 2.01747 9.10834C2.05676 9.2351 2.12088 9.35278 2.2061 9.45451C2.29132 9.55625 2.39593 9.64 2.51384 9.7009L10.0177 13.7322L6.83155 19.5889L2.51384 21.9079C2.39593 21.9688 2.29132 22.0526 2.2061 22.1543C2.12088 22.256 2.05676 22.3737 2.01747 22.5005C1.97819 22.6273 1.96453 22.7606 1.97729 22.8927C1.99004 23.0248 2.02896 23.153 2.09178 23.2699C2.15459 23.3868 2.24005 23.49 2.34316 23.5736C2.44627 23.6571 2.56498 23.7193 2.69237 23.7565C2.81976 23.7937 2.95328 23.8052 3.08515 23.7903C3.21702 23.7754 3.3446 23.7344 3.46046 23.6696L5.08546 22.796L2.78728 27.0212C2.70444 27.1736 2.66263 27.3448 2.66597 27.5182C2.6693 27.6916 2.71767 27.8611 2.80631 28.0102C2.89495 28.1592 3.02082 28.2827 3.17157 28.3684C3.32233 28.4541 3.49277 28.4991 3.66619 28.4991H28.3329C28.5063 28.4991 28.6767 28.4541 28.8275 28.3684C28.9782 28.2827 29.1041 28.1592 29.1927 28.0102C29.2814 27.8611 29.3297 27.6916 29.3331 27.5182C29.3364 27.3448 29.2946 27.1736 29.2118 27.0212L26.9214 22.8116L28.5177 23.6696C28.6336 23.7344 28.7612 23.7754 28.8931 23.7903C29.0249 23.8052 29.1584 23.7937 29.2858 23.7565C29.4132 23.7193 29.5319 23.6571 29.635 23.5736C29.7382 23.49 29.8236 23.3868 29.8864 23.2699C29.9492 23.153 29.9882 23.0248 30.0009 22.8927C30.0137 22.7606 30 22.6273 29.9607 22.5005C29.9214 22.3737 29.8573 22.256 29.7721 22.1543C29.6869 22.0526 29.5823 21.9688 29.4644 21.9079L25.1766 19.6045L21.9761 13.723L29.4644 9.7009C29.5823 9.64 29.6869 9.55625 29.7721 9.45451C29.8573 9.35278 29.9214 9.2351 29.9607 9.10834C30 8.98158 30.0137 8.84827 30.0009 8.71617C29.9882 8.58407 29.9492 8.45584 29.8864 8.33894C29.8236 8.22203 29.7382 8.1188 29.635 8.03525C29.5319 7.95171 29.4132 7.88952 29.2858 7.85231C29.1584 7.81511 29.0249 7.80363 28.8931 7.81854C28.7612 7.83345 28.6336 7.87446 28.5177 7.93918L21.0204 11.9665L16.8784 4.35455C16.7903 4.19235 16.6589 4.05773 16.499 3.96557C16.339 3.87341 16.1567 3.82733 15.9722 3.83241ZM15.9995 6.92616L19.2573 12.9131L15.9891 14.6697L12.7365 12.9223L15.9995 6.92616ZM20.2131 14.6697L21.9579 17.8754L18.1024 15.8038L20.2131 14.6697ZM11.7808 14.6788L13.8758 15.8038L10.0503 17.8598L11.7808 14.6788ZM15.9891 16.9392L23.7026 21.0837L26.6493 26.4991H5.34978L8.30421 21.0681L15.9891 16.9392Z" fill="black"/>
</svg>
