<svg width="35" height="50" viewBox="0 0 35 50" fill="none" xmlns="http://www.w3.org/2000/svg">
<path d="M0.754663 41.6073C0.94375 41.7587 1.12531 41.8641 1.29182 41.9252C1.45833 41.9854 1.63237 42.0231 1.81393 42.0231C2.03312 42.0231 2.20716 41.9704 2.33604 41.8716C2.46492 41.7738 2.53265 41.6298 2.53265 41.4483C2.52512 41.2968 2.48749 41.1839 2.41129 41.0927C2.33603 41.0024 2.22973 40.9337 2.10932 40.8735C1.98044 40.8133 1.84497 40.7597 1.69351 40.7145C1.55711 40.6694 1.42164 40.6242 1.28524 40.5631C1.14883 40.5019 1.02089 40.4342 0.907061 40.3439C0.793232 40.2536 0.702922 40.1397 0.635189 39.9958C0.567456 39.8519 0.528887 39.6778 0.528887 39.4737C0.528887 39.2169 0.59662 38.9902 0.7255 38.8011C0.861907 38.612 1.04347 38.468 1.27018 38.3702C1.50443 38.2724 1.76125 38.2188 2.04911 38.2188C2.2683 38.2188 2.4875 38.2489 2.69916 38.3015C2.91083 38.3617 3.06228 38.4304 3.16764 38.5057C3.289 38.5734 3.3492 38.6722 3.3492 38.7926C3.3492 38.8453 3.32663 38.9215 3.28147 39.0043C3.23632 39.0946 3.17517 39.1783 3.09239 39.2536C2.95598 39.1473 2.80546 39.0569 2.63895 38.9967C2.46492 38.929 2.29841 38.8989 2.14036 38.8989C1.9287 38.8989 1.76219 38.9441 1.64177 39.0278C1.52136 39.1115 1.45269 39.2319 1.45269 39.3909C1.45269 39.4737 1.47526 39.5499 1.51289 39.6176C1.55052 39.6854 1.6192 39.754 1.71703 39.8067C1.80734 39.8669 1.98891 39.9431 2.23914 40.0334C2.37555 40.0861 2.51101 40.1397 2.65495 40.1999C2.79888 40.2601 2.92682 40.3363 3.04064 40.4267C3.15447 40.517 3.25231 40.6308 3.32004 40.7747C3.3953 40.9111 3.42635 41.0842 3.42635 41.2968C3.42635 41.7352 3.28241 42.0758 2.99549 42.3251C2.70857 42.5743 2.31534 42.6957 1.82334 42.6957C1.59662 42.6957 1.37743 42.6731 1.17329 42.628C0.96915 42.5828 0.802641 42.5141 0.659649 42.4389C0.538294 42.3561 0.478087 42.2648 0.478087 42.1595C0.475265 42.0381 0.573101 41.849 0.754663 41.6073Z" fill="black"/>
<path d="M5.45763 39.0195H4.11144C4.09639 38.9442 4.08887 38.8605 4.08887 38.7627C4.08887 38.6187 4.13402 38.5134 4.2328 38.4297C4.33158 38.3459 4.45952 38.3008 4.63355 38.3008H7.64296C7.65801 38.3911 7.66554 38.4823 7.66554 38.5727C7.66554 38.7091 7.62038 38.8144 7.52913 38.8981C7.43882 38.9734 7.30994 39.0195 7.14343 39.0195H6.3344V42.5952H5.45011V39.0195H5.45763Z" fill="black"/>
<path d="M9.80423 39.0788L9.22191 40.901H10.3715L9.80423 39.0788ZM10.9002 42.5944L10.5371 41.5436H9.0554L8.6998 42.5944H7.83057L9.31975 38.3677C9.45615 38.3074 9.63019 38.2773 9.83339 38.2773C10.1514 38.2773 10.347 38.4138 10.4383 38.6781L11.8146 42.5944H10.9002Z" fill="black"/>
<path d="M16.2767 42.5944H15.5354L13.7132 39.7741V42.5944H12.874V38.315C12.9879 38.2924 13.1158 38.2773 13.2673 38.2773C13.3886 38.2773 13.494 38.2999 13.5692 38.3375C13.6445 38.3752 13.7207 38.4514 13.7884 38.5643L15.4441 41.2632V38.315C15.573 38.2924 15.6708 38.2849 15.731 38.2849C16.1017 38.2849 16.2832 38.4514 16.2832 38.7835L16.2767 42.5944Z" fill="black"/>
<path d="M20.3737 40.3901C20.3737 39.9066 20.2674 39.5434 20.0632 39.3017C19.8591 39.0674 19.5496 38.9461 19.1253 38.9461C19.004 38.9461 18.876 38.9536 18.7396 38.9686V41.9169H19.0952C19.5336 41.9169 19.8591 41.7955 20.0632 41.5538C20.2758 41.313 20.3737 40.9272 20.3737 40.3901ZM21.274 40.375C21.274 40.8285 21.1912 41.2217 21.0247 41.5622C20.8582 41.9028 20.6239 42.1521 20.3144 42.3336C20.0124 42.5077 19.6493 42.598 19.226 42.598H17.8647V38.3487C18.2655 38.296 18.6663 38.2734 19.067 38.2734C19.8008 38.2734 20.3445 38.4475 20.7152 38.8031C21.0849 39.1502 21.274 39.6798 21.274 40.375Z" fill="black"/>
<path d="M23.9575 39.0788L23.3752 40.901H24.5248L23.9575 39.0788ZM25.0535 42.5944L24.6904 41.5436H23.2087L22.8531 42.5944H21.9839L23.4731 38.3677C23.6095 38.3074 23.7835 38.2773 23.9867 38.2773C24.3047 38.2773 24.5003 38.4138 24.5916 38.6781L25.9679 42.5944H25.0535Z" fill="black"/>
<path d="M28.9926 39.6193C28.9926 39.37 28.9324 39.1885 28.8035 39.0671C28.6746 38.9458 28.478 38.8856 28.2061 38.8856C28.1309 38.8856 28.0622 38.8856 28.0095 38.8931C27.9568 38.9006 27.9032 38.9006 27.8656 38.9081V40.3898H28.1675C28.4319 40.3898 28.636 40.3221 28.78 40.1932C28.9248 40.0577 28.9926 39.8611 28.9926 39.6193ZM29.9154 39.5356C29.9154 39.8376 29.8477 40.1029 29.7038 40.3145C29.5598 40.5337 29.3632 40.6852 29.1064 40.783L30.1647 42.5525C29.9982 42.6278 29.8242 42.6589 29.6511 42.6589C29.4921 42.6589 29.3642 42.6212 29.2503 42.5525C29.144 42.4848 29.0462 42.371 28.9559 42.2195L28.2296 40.9796H27.874V42.5902H26.9897V38.3258C27.3604 38.2807 27.7386 38.2656 28.1243 38.2656C28.7367 38.2656 29.1826 38.3719 29.478 38.5761C29.7715 38.7793 29.9154 39.1048 29.9154 39.5356Z" fill="black"/>
<path d="M33.824 40.3901C33.824 39.9066 33.7177 39.5434 33.5136 39.3017C33.3095 39.0674 32.999 38.9461 32.5757 38.9461C32.4543 38.9461 32.3264 38.9536 32.19 38.9686V41.9169H32.5456C32.984 41.9169 33.3095 41.7955 33.5136 41.5538C33.7177 41.313 33.824 40.9272 33.824 40.3901ZM34.7159 40.375C34.7159 40.8285 34.6331 41.2217 34.4666 41.5622C34.3001 41.9028 34.0658 42.1521 33.7563 42.3336C33.4543 42.5077 33.0912 42.598 32.6679 42.598H31.3066V38.3487C31.7074 38.296 32.1081 38.2734 32.5089 38.2734C33.2427 38.2734 33.7864 38.4475 34.1571 38.8031C34.5343 39.1502 34.7159 39.6798 34.7159 40.375Z" fill="black"/>
<path d="M13.5693 49.03V45.7863L12.7302 46.2097C12.5561 45.9829 12.4658 45.8014 12.4658 45.6875C12.4658 45.5662 12.5336 45.4684 12.67 45.4006L13.5768 44.9246C13.6596 44.8795 13.7433 44.8418 13.8261 44.8108C13.9014 44.7807 13.9851 44.7656 14.0754 44.7656C14.2118 44.7656 14.3247 44.8033 14.431 44.8719V49.03H13.5693Z" fill="black"/>
<path d="M18.1214 46.9267C18.1214 46.413 18.0687 46.0273 17.9549 45.7771C17.8411 45.5278 17.6605 45.4064 17.4177 45.4064C17.176 45.4064 16.9869 45.5278 16.8731 45.7771C16.7592 46.0264 16.699 46.4045 16.699 46.9267C16.699 47.4488 16.7592 47.8109 16.8731 48.0612C16.9869 48.3105 17.1675 48.4318 17.4177 48.4318C17.667 48.4318 17.8411 48.3105 17.9549 48.0687C18.0678 47.826 18.1214 47.4412 18.1214 46.9267ZM18.9907 46.9267C18.9907 47.6529 18.8542 48.1966 18.5899 48.5673C18.3256 48.9379 17.9323 49.1195 17.4102 49.1195C16.8881 49.1195 16.4798 48.9379 16.2155 48.5748C15.9511 48.2117 15.8223 47.6604 15.8223 46.9267C15.8223 46.1929 15.9587 45.6792 16.2381 45.2935C16.5175 44.9078 16.9107 44.7188 17.4328 44.7188C17.9549 44.7188 18.3397 44.9003 18.5974 45.2634C18.8618 45.6266 18.9907 46.1778 18.9907 46.9267Z" fill="black"/>
<path d="M22.4073 46.9267C22.4073 46.413 22.3546 46.0273 22.2408 45.7771C22.127 45.5278 21.9463 45.4064 21.7036 45.4064C21.4609 45.4064 21.2728 45.5278 21.1589 45.7771C21.0451 46.0264 20.9849 46.4045 20.9849 46.9267C20.9849 47.4488 21.0451 47.8109 21.1589 48.0612C21.2728 48.3105 21.4534 48.4318 21.7036 48.4318C21.9539 48.4318 22.127 48.3105 22.2408 48.0687C22.3546 47.826 22.4073 47.4412 22.4073 46.9267ZM23.27 46.9267C23.27 47.6529 23.1335 48.1966 22.8692 48.5673C22.6049 48.9379 22.2116 49.1195 21.6895 49.1195C21.1674 49.1195 20.7591 48.9379 20.4948 48.5748C20.2304 48.2117 20.1016 47.6604 20.1016 46.9267C20.1016 46.1929 20.238 45.6792 20.5174 45.2935C20.7968 44.9078 21.19 44.7188 21.7121 44.7188C22.2342 44.7188 22.619 44.9003 22.8767 45.2634C23.1411 45.6266 23.27 46.1778 23.27 46.9267Z" fill="black"/>
<path d="M6.52299 28.7785C10.0256 32.2878 14.3989 33.5958 18.1115 33.5958C22.6461 33.5958 27.2113 31.7564 30.0456 28.4902C32.8809 25.2231 34.3349 21.099 34.3349 15.2658V0.875H19.995C14.0762 0.875 10.2977 2.68761 8.28719 4.0339C6.20414 5.43094 2.51727 9.17872 1.81941 15.2772C1.27049 20.0869 2.84376 25.0891 6.52299 28.7785Z" fill="#0DAD8D"/>
<path d="M9.40341 15.2921C9.15425 14.9071 9.03109 14.3728 9.03109 13.6834C9.03109 12.9949 9.15425 12.4788 9.40341 12.114C9.65258 11.7482 10.0173 11.5634 10.4927 11.5634C10.9681 11.5634 11.2946 11.7482 11.5361 12.114C11.7738 12.4798 11.897 13.0064 11.897 13.6834C11.897 14.3604 11.7738 14.9148 11.5285 15.2959C11.2831 15.677 10.9299 15.8694 10.4698 15.8694C10.0096 15.8694 9.65353 15.677 9.40341 15.2921ZM12.4382 16.0035C12.9098 15.4414 13.1437 14.6649 13.1437 13.6757C13.1437 12.6866 12.9137 11.9369 12.4573 11.3939C12.001 10.851 11.349 10.5781 10.5013 10.5781C9.9447 10.5781 9.46164 10.7016 9.05496 10.9439C8.64828 11.19 8.33038 11.5481 8.10699 12.025C7.88074 12.498 7.76904 13.0524 7.76904 13.6872C7.76904 14.3221 7.86833 14.8841 8.07549 15.361C8.27883 15.8379 8.57764 16.2075 8.97668 16.4612C9.37191 16.7188 9.85878 16.8461 10.4306 16.8461C11.3013 16.8461 11.9686 16.5656 12.4411 16.0035" fill="white"/>
<path d="M18.0546 16.541C18.0546 16.495 18.0584 16.4414 18.0584 16.3753C18.0584 16.1714 17.9935 16.0172 17.8665 15.9061C17.7395 15.7941 17.5601 15.7405 17.3214 15.7405H15.4226V14.0859H17.3023V13.1274H15.4226V11.6499H17.1715C17.4436 11.6499 17.6355 11.6039 17.751 11.5072C17.8665 11.4115 17.9238 11.2496 17.9238 11.0227C17.9238 10.8915 17.9161 10.7805 17.8971 10.6914H14.1987V16.6903H18.0383C18.0422 16.6367 18.0498 16.5869 18.0536 16.5438" fill="white"/>
<path d="M20.1225 13.6436C20.1454 13.9471 20.2914 14.2746 20.5559 14.6212L21.8599 16.3218C22.0976 16.633 22.4127 16.7872 22.8079 16.7872C23.0456 16.7872 23.2795 16.7182 23.5096 16.5794L21.2995 13.5632L23.2594 10.9233C23.1754 10.839 23.0714 10.7729 22.9444 10.727C22.8174 10.681 22.6838 10.6542 22.5415 10.6542C22.3764 10.6542 22.2265 10.6925 22.0929 10.77C21.9592 10.8476 21.8284 10.9702 21.6976 11.1358L20.4814 12.7483C20.3621 12.9025 20.2742 13.0404 20.2208 13.1639C20.1635 13.2874 20.1291 13.41 20.1215 13.5335V11.3484C20.1215 10.883 19.8571 10.6484 19.331 10.6484C19.2356 10.6484 19.0933 10.6638 18.9053 10.6944V16.6857H20.1215V13.6417V13.6436H20.1225Z" fill="white"/>
<path d="M27.4078 15.2959C27.1625 15.677 26.8093 15.8694 26.3491 15.8694C25.889 15.8694 25.5319 15.677 25.2828 15.2921C25.0336 14.9071 24.9105 14.3728 24.9105 13.6834C24.9105 12.9949 25.0336 12.4788 25.2828 12.114C25.5319 11.7482 25.8966 11.5634 26.372 11.5634C26.8475 11.5634 27.1739 11.7482 27.4155 12.114C27.6532 12.4798 27.7763 13.0064 27.7763 13.6834C27.7754 14.3604 27.6532 14.9148 27.4078 15.2959ZM28.3396 11.3939C27.8794 10.851 27.2274 10.5781 26.3835 10.5781C25.8269 10.5781 25.3439 10.7016 24.9372 10.9439C24.5305 11.19 24.2126 11.5481 23.9854 12.0211C23.7592 12.4941 23.6475 13.0486 23.6475 13.6834C23.6475 14.3182 23.7506 14.8803 23.9539 15.3572C24.1572 15.834 24.4561 16.2036 24.8551 16.4574C25.2503 16.715 25.7372 16.8423 26.309 16.8423C27.1797 16.8423 27.847 16.5617 28.3195 15.9997C28.7911 15.4376 29.025 14.661 29.025 13.6719C29.025 12.6828 28.7949 11.933 28.3386 11.3901" fill="white"/>
<path d="M26.9001 21.5054C26.2634 21.5054 25.7488 20.9826 25.7488 20.3429C25.7488 19.7043 26.2663 19.1767 26.9001 19.1767C27.534 19.1767 28.0553 19.6995 28.0553 20.3429C28.0553 20.9864 27.5369 21.5054 26.9001 21.5054ZM26.9001 18.8281C26.0715 18.8281 25.4004 19.5089 25.4004 20.3439C25.4004 21.1789 26.0715 21.8597 26.9001 21.8597C27.7288 21.8597 28.3999 21.1789 28.3999 20.3439C28.3999 19.5089 27.725 18.8281 26.9001 18.8281Z" fill="white"/>
<path d="M27.0576 20.225C27.0079 20.2672 26.9344 20.2901 26.8466 20.2901H26.7435V19.775C26.7435 19.775 26.7702 19.775 26.7931 19.7712H26.8619C26.9459 19.7712 27.0118 19.7903 27.0614 19.8286C27.1072 19.8669 27.134 19.932 27.134 20.0249C27.134 20.1168 27.1072 20.1829 27.0576 20.2289M27.2724 20.3792C27.3067 20.3562 27.3373 20.3256 27.364 20.2911C27.3908 20.2528 27.4137 20.2107 27.4289 20.1638C27.4442 20.1168 27.448 20.0642 27.448 19.9981C27.448 19.8516 27.3984 19.7405 27.2982 19.6668C27.2027 19.594 27.0452 19.5586 26.8304 19.5586C26.7731 19.5586 26.7149 19.5586 26.6423 19.5624C26.5736 19.5663 26.5077 19.5739 26.439 19.5777V21.059H26.7454V20.497H26.8686L27.1177 20.9279C27.1483 20.9815 27.1826 21.0198 27.217 21.0437C27.2514 21.0667 27.2972 21.0782 27.3516 21.0782C27.3783 21.0782 27.4089 21.0744 27.4433 21.0667C27.4738 21.059 27.5005 21.0514 27.5311 21.0399L27.1664 20.4242C27.2046 20.4127 27.239 20.3936 27.2695 20.3706" fill="white"/>
<path d="M10.7884 18.871C10.5583 18.871 10.3741 18.9285 10.2395 19.0443C10.1049 19.1602 10.0361 19.3172 10.0361 19.5135C10.0361 19.6447 10.0438 19.7634 10.0629 19.8716H11.9158V24.87H13.1397V19.8716H14.2557C14.4858 19.8716 14.6662 19.818 14.7932 19.706C14.9201 19.594 14.9851 19.4446 14.9851 19.2521C14.9851 19.1209 14.9774 18.9945 14.9583 18.8672H10.7884V18.871Z" fill="white"/>
<path d="M18.8175 23.924H16.9187V22.2655H18.7984V21.3071H16.9187V19.8296H18.6676C18.9397 19.8296 19.1316 19.7836 19.2471 19.6869C19.3626 19.5912 19.4199 19.4293 19.4199 19.2024C19.4199 19.0712 19.4122 18.9601 19.3931 18.8711H15.6948V24.87H19.5344C19.5383 24.8164 19.5459 24.7666 19.5459 24.7235C19.5459 24.6776 19.5497 24.624 19.5497 24.5579C19.5497 24.3539 19.4848 24.1959 19.3578 24.0887C19.2309 23.9767 19.0476 23.923 18.8127 23.923" fill="white"/>
<path d="M24.9787 19.0131C24.7524 18.8934 24.5376 18.8359 24.3305 18.8359C24.1424 18.8359 23.9849 18.8742 23.8665 18.9518C23.7433 19.0284 23.625 19.1711 23.5056 19.3712L22.6274 20.8946L21.7682 19.2745C21.6183 18.9824 21.3844 18.8359 21.0589 18.8359C20.8402 18.8359 20.5834 18.9011 20.2875 19.0322L21.8484 21.8799L20.0918 24.8694H21.4226L22.5577 22.892L23.4703 24.4231C23.5896 24.6271 23.7157 24.7698 23.8464 24.8502C23.9811 24.9306 24.1491 24.9737 24.3562 24.9737C24.5748 24.9737 24.8087 24.9278 25.0579 24.8387L23.3281 21.8378L24.9777 19.0179V19.0131H24.9787Z" fill="white"/>
</svg>
