<svg width="16" height="16" viewBox="0 0 16 16" fill="none" xmlns="http://www.w3.org/2000/svg">
<path fill-rule="evenodd" clip-rule="evenodd" d="M8 0C5.82667 0 5.556 0.00933333 4.70133 0.0493333C1.79467 0.182667 0.181333 1.79467 0.048 4.70133C0.00933333 5.556 0 5.828 0 8C0 10.1733 0.00933333 10.4453 0.048 11.2987C0.181333 14.204 1.79467 15.8187 4.70133 15.952C5.556 15.9907 5.82667 16 8 16C10.1733 16 10.4453 15.9907 11.3 15.952C14.2013 15.8187 15.8213 14.2067 15.952 11.2987C15.9907 10.4453 16 10.1733 16 8C16 5.828 15.9907 5.556 15.952 4.70133C15.8213 1.79867 14.2067 0.181333 11.3 0.0493333C10.4453 0.00933333 10.1733 0 8 0ZM8.00007 1.44141C10.1361 1.44141 10.3894 1.44941 11.2334 1.48807C13.4027 1.58674 14.4134 2.61474 14.5134 4.76674C14.5507 5.61074 14.5587 5.86274 14.5587 7.99874C14.5587 10.1347 14.5507 10.3881 14.5134 11.2307C14.4134 13.3814 13.4041 14.4121 11.2334 14.5107C10.3894 14.5481 10.1374 14.5574 8.00007 14.5574C5.86407 14.5574 5.61074 14.5494 4.76807 14.5107C2.59474 14.4107 1.58807 13.3787 1.48807 11.2307C1.45074 10.3881 1.44141 10.1347 1.44141 7.99874C1.44141 5.86274 1.45074 5.60941 1.48807 4.76674C1.58674 2.61341 2.59741 1.58541 4.76807 1.48674C5.61074 1.44807 5.86407 1.44141 8.00007 1.44141ZM3.89209 7.99862C3.89209 5.72929 5.73209 3.89062 8.00009 3.89062C10.2681 3.89062 12.1081 5.73063 12.1081 7.99862C12.1081 10.268 10.2681 12.1066 8.00009 12.1066C5.73209 12.1066 3.89209 10.268 3.89209 7.99862ZM8.00016 10.6654C6.52683 10.6654 5.3335 9.47203 5.3335 7.9987C5.3335 6.5267 6.52683 5.33203 8.00016 5.33203C9.47216 5.33203 10.6682 6.52536 10.6682 7.9987C10.6682 9.47203 9.47216 10.6654 8.00016 10.6654ZM11.3096 3.72953C11.3096 3.19886 11.7402 2.76953 12.2696 2.76953C12.8016 2.76953 13.2309 3.19886 13.2309 3.72953C13.2309 4.2602 12.8002 4.68953 12.2696 4.68953C11.7389 4.68953 11.3096 4.25886 11.3096 3.72953Z" fill="white"/>
</svg>
