<svg width="120" height="90" viewBox="0 0 120 90" fill="none" xmlns="http://www.w3.org/2000/svg">
<mask id="path-1-inside-1_325_709" fill="white">
<path fill-rule="evenodd" clip-rule="evenodd" d="M120 53.045V90H70.085V40H90C90 28.945 82.185 15.34 70.02 10.755L75 0C101.26 5.195 120 24.525 120 53.045ZM49.915 53.045V90H0V40H20C20 28.945 12.185 15.34 0.0250015 10.755L5 0C31.26 5.195 49.915 24.525 49.915 53.045Z"/>
</mask>
<path d="M120 90H121V91H120V90ZM70.085 90V91H69.085V90H70.085ZM70.085 40H69.085V39H70.085V40ZM90 40H91V41H90V40ZM70.02 10.755L69.6673 11.6907L68.6604 11.3112L69.1126 10.3348L70.02 10.755ZM75 0L74.0926 -0.420181L74.4229 -1.13355L75.1941 -0.980988L75 0ZM49.915 90H50.915V91H49.915V90ZM0 90V91H-1V90H0ZM0 40H-1V39H0V40ZM20 40H21V41H20V40ZM0.0250015 10.755L-0.327805 11.6907L-1.33411 11.3113L-0.882599 10.3352L0.0250015 10.755ZM5 0L4.0924 -0.419834L4.42258 -1.13361L5.19407 -0.980988L5 0ZM119 90V53.045H121V90H119ZM70.085 89H120V91H70.085V89ZM71.085 40V90H69.085V40H71.085ZM90 41H70.085V39H90V41ZM70.3727 9.81926C76.693 12.2014 81.8446 16.9092 85.4108 22.4071C88.9745 27.901 91 34.2523 91 40H89C89 34.6927 87.118 28.714 83.7329 23.4954C80.3504 18.2808 75.512 13.8936 69.6673 11.6907L70.3727 9.81926ZM75.9074 0.420181L70.9274 11.1752L69.1126 10.3348L74.0926 -0.420181L75.9074 0.420181ZM119 53.045C119 25.0604 100.657 6.09505 74.8059 0.980988L75.1941 -0.980988C101.863 4.29495 121 23.9896 121 53.045H119ZM48.915 90V53.045H50.915V90H48.915ZM0 89H49.915V91H0V89ZM1 40V90H-1V40H1ZM20 41H0V39H20V41ZM0.377808 9.81931C6.69563 12.2015 11.8459 16.9093 15.4115 22.4071C18.9745 27.901 21 34.2523 21 40H19C19 34.6927 17.118 28.714 13.7335 23.4954C10.3516 18.2807 5.51437 13.8935 -0.327805 11.6907L0.377808 9.81931ZM5.9076 0.419834L0.932602 11.1748L-0.882599 10.3352L4.0924 -0.419834L5.9076 0.419834ZM48.915 53.045C48.915 25.0582 30.6545 6.09459 4.80593 0.980988L5.19407 -0.980988C31.8655 4.29541 50.915 23.9918 50.915 53.045H48.915Z" fill="#41A195" mask="url(#path-1-inside-1_325_709)"/>
</svg>
