<svg width="582" height="194" viewBox="0 0 582 194" fill="none" xmlns="http://www.w3.org/2000/svg">
<path d="M42 92.3C39.8 92.3 37.8 91.9 36.1 91.2C31.1 89.7 25.9 86.5 20.7 81.7C15.5 76.7 10.9 70.7001 7 63.8C3.3 56.7001 1.00002 49.7001 0.300018 42.8C0.100018 42.1 0 41.1 0 40C0 38.9 0 37.6 0 36.1C0 12 15.1 0 45.4 0C60.3 0 76.8 2.3 94.7 7C112.6 11.7 133.4 17.9 157.1 25.8C163.1 27.9 168.1 29.5 172.2 30.8C176.3 32.1 179.3 33 181.2 33.6C187.5 35.5 193.4 36.4 198.8 36.4C204.8 36.4 209.2 35.3 212 33C214.8 30.6 216.1 28 215.9 25.2V24.1C215.9 21.9 216.6 20.7 217.9 20.7C219.4 20.7 221 21.8 222.7 24.1C223.4 25 223.8 26.3 223.8 28C223.8 31.9 221.7 35.6 217.4 38.9C213.1 42.3 206.6 43.9 197.8 43.9C189.8 43.9 180.9 42.6 171.2 40C161.5 37.4 148.9 33.6 133.4 28.5C116 22.9 101.8 18.7 90.6 15.9C79.4 12.9 68.9 11.4 59.2 11.4C36.4 11.4 22 21.4 15.8 41.4C15.2 43.3 15 45.4 15 47.8C15 52.5 16.2 57.8 18.6 63.8C21.2 69.6001 24.4 74.8 28.1 79.5C31.8 84 35.5 86.6001 39 87.3H41C45.5 87.3 47.7 88.1001 47.7 89.8C47.7 90.4 47.2 90.9 46.3 91.5C45.1 92 43.7 92.3 42 92.3ZM60 193.1C51.2 191.2 46.8 186.5 46.8 178.8C46.8 175.1 47.7 170.1 49.6 164C51.5 158.6 53.1 153.8 54.6 149.7C56.3 145.4 57.9 141.8 59.4 138.8C60.9 135.8 62.7 132.5 64.7 128.7C66.9 125 69.6 120.8 72.5 116.1L58.5 124.2C56.1 125.5 53.9 126.6 52.1 127.6C50.2 128.5 48.6 129.2 47.1 129.6C46.9 129.6 46.7 129.7 46.5 129.9C46.5 129.9 46.4 129.9 46.2 129.9C45.3 129.9 44.8 129.2 44.8 127.7C44.8 125.6 45.5 123.1 46.8 120.1C48.3 117.1 49.7 115.2 51 114.2C53.4 112.9 55.7 111.8 57.7 110.8C59.8 109.9 61.5 109.2 63 108.8C63.6 108.6 64.2 108.4 65 108.2C65.7 107.8 66.6 107.5 67.5 107.4C69.2 106.8 71.4 106 74.2 104.9C77 103.6 79.2 102.8 80.9 102.7C80.9 102.7 81.6 101.8 82.9 99.9C84.2 97.8 86.2 94.9 88.8 90.9C96.6 78.8 101.5 71 103.4 67.7C107.9 59.7 111.9 53.4 115.4 48.9C117.5 46.1 120.3 44.7 124.1 44.7C126.7 44.7 129.1 45.4 131.4 46.7C133.6 48 134.8 49.4 134.8 50.9C134.8 51.8 134.4 52.6 133.7 53.1C128.5 57.6 122.2 63.9 114.9 72.1C107.8 80.1 100.8 88.7 93.9 97.9C108.8 94 122.8 92 135.9 92C138.9 92 141 92.3 142.3 92.8C143.8 93.7001 144.5 94.6001 144.5 95.3C144.5 95.9 143.9 96.6 142.8 97.5C142.2 97.9 141.5 98.2001 140.6 98.3C139.9 98.5 139 98.7 138.1 98.9C131 99.3 124.8 99.9 119.3 100.9C113.9 101.8 108.6 103.1 103.3 104.8C98.3 106.3 92.6 108.3 86.2 111C82.3 116.6 79 121.4 76.4 125.3C73.8 129 71.6 132.6 70 135.9C68.3 139.1 66.7 142.6 65.2 146.5C63.7 150.2 62.1 154.9 60.4 160.5C58.5 166.1 57.6 170.6 57.6 173.9C57.6 179.1 59.9 182.3 64.6 183.4C66.3 183.6 67.1 184.5 67.1 186.2C67.1 187.9 66.3 189.5 64.6 191C63.2 192.8 61.6 193.5 60 193.1ZM166.2 174.6C165.8 174.6 165.5 174.5 165.1 174.3C164.7 174.3 164.4 174.2 164 174C161.4 172.7 159.7 170.8 159 168.4C158.3 166 158.1 162.9 158.4 159.2C158.8 157.7 159.1 155.1 159.5 151.4C160.1 147.7 160.7 144.7 161.5 142.4L147.2 156.1L139.4 163.7C134 169.1 129.5 171.8 126 171.8C124.5 171.8 123.3 171.2 122.4 170.1C120.7 168 119.9 165.5 119.9 162.5C119.9 158.6 120.9 154.4 123 149.9C125.1 145.4 127.5 141.1 130.3 137C133.1 132.7 135.6 129.2 137.9 126.4C143.5 119.5 148.9 114.1 154.1 110.2C159.5 106.3 165.1 104.3 170.9 104.3C174.1 104.3 177.2 104.9 180.1 106C183.3 107.1 186.2 109 188.8 111.6L189.1 111.9C189.1 112.5 188.6 113 187.7 113.6C187.3 114 187 114.3 186.6 114.4C186.4 114.6 186.2 114.8 186 115C183.8 117.2 181.2 121 178.4 126.2C175.6 131.4 173.2 136.9 171.1 142.7C169 148.3 168 153.2 168 157.3C168 161 168.9 163.6 170.8 164.9C171.7 165.5 172.8 165.7 173.9 165.7C176.3 165.7 179.7 164.2 184 161.2C184.2 161 184.6 160.7 185.1 160.4C185.8 159.8 186.9 159.1 188.2 158.2C189.7 157.1 190.9 156.5 191.8 156.5C192.7 156.5 193.2 156.9 193.2 157.6C193.2 158.7 192.5 160 191 161.5C189.9 162.4 188.6 163.5 187.1 164.6C185.8 165.7 184.2 166.8 182.3 168C179.5 170.1 176.6 171.6 173.6 172.8C170.5 174 168.1 174.6 166.2 174.6ZM134.6 156.7C138.5 156.7 145.8 150.9 156.4 139.3C159.2 136.1 161.7 133.1 164 130.3C166.2 127.3 168.3 124.4 170.2 121.6C173.6 116.2 174.7 112.5 173.6 110.4C173 109.3 171.9 108.7 170.2 108.7C168.1 108.7 165.3 109.8 161.8 112.1C158.3 114.2 154.6 116.9 150.9 120.2C147.4 123.6 144.1 126.9 141.1 130.3C139 132.9 137 136.6 134.9 141.2C132.8 145.9 131.8 149.7 131.8 152.7C131.8 155.4 132.7 156.7 134.6 156.7ZM209.6 177.1C205.5 177.1 203.8 172.1 204.6 162C205 159.8 205.7 156.2 206.8 151.4C208.1 146.5 209.7 141.2 211.6 135.4C213.5 129.4 215.2 124.1 216.9 119.4C218 116.2 220 113.2 222.8 110.4C225.8 107.6 228.2 106.2 230.1 106.2C231.2 106.2 231.8 106.9 231.8 108.4C231.8 110.5 230.7 113.6 228.4 117.9C225.6 123.1 223.4 127.6 221.7 131.3C220 134.8 218.6 138.5 217.5 142.2C216.6 145.7 215.5 150.1 214.4 155.4V157.9C214.4 163.9 215.7 165.7 218.3 163.5C223.2 159.6 228.2 155 233.4 149.8C238.6 144.4 243.6 139 248.2 133.6C252.9 128.2 256.6 123.4 259.4 119.3C261.3 116.3 263.4 114.1 265.8 112.6C268.4 110.9 269.5 110.6 269.2 111.8C269 113.5 267.4 116.6 264.4 121C261.6 125.5 258.1 130.5 253.8 136.1C249.7 141.5 245.4 146.7 240.9 151.8C236.6 156.8 232.8 160.8 229.4 163.6C228.1 164.9 226.1 166.6 223.5 168.6C221.1 170.8 218.6 172.8 215.9 174.5C213.5 176.3 211.3 177.1 209.6 177.1ZM279.6 170.1C275.7 170.1 272.2 169.1 269.2 167C264.3 163.3 261.9 157.7 261.9 150.2C261.9 142.7 264.5 134.8 269.7 126.4C274.9 118 282.9 110.3 293.5 103.2C295.4 101.9 297.9 101.2 301.1 101.2C305.2 101.2 308.8 102.3 312 104.6C315.4 106.8 316.7 109.7 315.9 113.3C314.6 119.1 311.7 124.2 307.2 128.7C302.9 133.2 297.8 137.2 291.8 140.7C286 144.1 280 147.3 273.9 150.5C273.7 151.1 273.5 151.6 273.3 152.2C273.3 152.8 273.3 153.3 273.3 153.9C273.3 156.5 274.1 158.8 275.8 160.9C277.7 162.8 280.2 163.7 283.4 163.7C285.8 163.7 287.9 163.3 289.6 162.6C292.6 161.5 295 160.5 296.9 159.5C299 158.6 301.3 157.2 303.9 155.3C306.5 153.4 310.1 150.6 314.5 146.9C316.6 145.4 317.8 144.7 318.1 144.7C319.2 144.7 319.6 145.5 319.2 147.2C317.3 150.2 314.1 153.5 309.4 157C304.9 160.5 299.9 163.6 294.3 166.2C289 168.8 284.1 170.1 279.6 170.1ZM275.7 143C277.2 143 280.3 141.5 284.9 138.5C289.6 135.5 294 132.2 298.1 128.7C305.2 122.2 308.7 117.1 308.7 113.6C308.7 112.7 308.4 111.8 307.9 111.1C307.3 110.2 306.5 109.7 305.4 109.7C301.9 109.7 295.9 113.9 287.5 122.3C281.7 127.8 277.7 134.8 275.7 143ZM320 185.5C317.9 185.5 316.2 184.8 314.7 183.5C313.4 182.2 312.8 180.6 313 178.7C313.4 171 314.8 163.7 317.2 156.6C319.8 149.5 323.5 141 328.4 131.1C329 129.8 329.4 128.7 329.8 127.7C330.4 126.6 330.8 125.6 331.2 124.9C335.3 116.1 339.5 107.7 343.8 99.7C348.1 91.7 352.4 83.8 356.7 76.2L360.6 69.2C365.1 61.2 369 54.7 372.4 49.9C375.8 44.9 379.1 41.2 382.5 39C386.8 36.4 389.4 35.1 390.3 35.1C391.8 35.1 393.3 36.4 394.8 39C395.7 40.9 393.9 45.4 389.2 52.7C386.8 56.4 383.7 61.1 380 66.7C376.5 72.3 372.2 78.6 367.1 85.7C366.2 87 364.6 89.3 362.3 92.7C360.2 95.9 357.4 100.1 353.9 105.3C350.4 110.5 347.3 115.3 344.7 119.6C342.1 123.7 339.9 127.3 338.3 130.5C334.9 136.7 331.8 143.3 328.8 150.4C325.8 157.3 324.3 162.7 324.3 166.6C324.3 170.1 325.7 171.9 328.5 171.9C333 171.9 340.2 168.1 350.1 160.4C351.2 160.6 351.8 161.1 351.8 162.1C351.8 162.8 350.9 164.2 349 166C347.3 167.7 345.2 169.5 342.6 171.3C340.2 173.4 337.3 175.7 333.9 178.3L329.4 181.7C326.3 184.3 323.2 185.5 320 185.5ZM363.2 185.5C361.1 185.5 359.4 184.8 357.9 183.5C356.6 182.2 356 180.6 356.2 178.7C356.6 171 358 163.7 360.4 156.6C363 149.5 366.7 141 371.6 131.1C372.2 129.8 372.6 128.7 373 127.7C373.6 126.6 374 125.6 374.4 124.9C378.5 116.1 382.7 107.7 387 99.7C391.3 91.7 395.6 83.8 399.9 76.2L403.8 69.2C408.3 61.2 412.2 54.7 415.6 49.9C419 44.9 422.3 41.2 425.7 39C430 36.4 432.6 35.1 433.5 35.1C435 35.1 436.5 36.4 438 39C438.9 40.9 437.1 45.4 432.4 52.7C430 56.4 426.9 61.1 423.2 66.7C419.7 72.3 415.4 78.6 410.3 85.7C409.4 87 407.8 89.3 405.5 92.7C403.4 95.9 400.6 100.1 397.1 105.3C393.6 110.5 390.5 115.3 387.9 119.6C385.3 123.7 383.1 127.3 381.5 130.5C378.1 136.7 375 143.3 372 150.4C369 157.3 367.5 162.7 367.5 166.6C367.5 170.1 368.9 171.9 371.7 171.9C376.2 171.9 383.4 168.1 393.3 160.4C394.4 160.6 395 161.1 395 162.1C395 162.8 394.1 164.2 392.2 166C390.5 167.7 388.4 169.5 385.8 171.3C383.4 173.4 380.5 175.7 377.1 178.3L372.6 181.7C369.5 184.3 366.4 185.5 363.2 185.5ZM434.4 105.7C432 105.7 430.8 105.1 430.8 104C430.8 103.1 431.5 101.8 432.8 100.1C434.3 98.2 436 96.6001 437.8 95.3C441.9 92.7001 445.1 90.4 447.3 88.6C449.7 86.7 452.6 83.6 456 79.1C456.2 79.5 456.3 80.2001 456.3 81.3C456.3 83.7001 455.3 86.7001 453.2 90.3C451.3 93.7001 449.2 96.7 446.8 99.5C444.4 102.3 442.2 104.1 440.4 104.8C438.6 105.4 436.6 105.7 434.4 105.7ZM409.5 174.3C408 174.3 406.6 173.7 405.3 172.6C404 171.5 403.3 170 403.3 168.1C403.3 164.2 406 157 411.4 146.5L414.5 140.3C414.9 139.9 415.3 139 415.9 137.5C416.6 136 417.7 134 419 131.6C420.3 129 421.3 126.7 422.1 124.6C422.8 122.5 423.4 120.6 423.8 118.7C423.8 118.5 424.2 118.1 424.9 117.6C425.6 117.1 426.4 116.6 427.1 116.2L428.8 115.9C430.3 115.9 431.5 116.2 432.4 116.7C433.5 117.3 433.9 118 433.5 118.9C432.2 121.7 431.1 124.1 430.1 126.2C429.2 128.3 428.4 130 427.9 131.5H427.6C425.5 136.2 423.8 140.6 422.3 144.9C421 149 420.4 152.9 420.6 156.7L420.9 164.3C420.7 166.2 420.1 167.8 418.9 169.1C418.2 169.7 417.1 170.3 415.8 171.1C414.5 172 412.8 173 410.8 173.9C410.7 174.2 410.2 174.3 409.5 174.3ZM437.6 171.5C434.2 171.5 432.6 170.2 432.6 167.6C432.6 165.9 433.2 163.8 434.3 161.2C435.6 158.6 436.9 156.1 438.2 153.6C441.7 147.3 445 141.1 448 135.1C451 129.1 453.9 122.8 456.7 116.1C458 113.1 460 111.6 462.6 111.6C465.4 111.6 466.2 113.3 465.1 116.6C464 119.4 462.9 121.9 461.7 124.2C456.5 134.8 453.9 142 453.9 145.8C453.9 147.5 454.5 148.5 455.6 148.9C458.2 146.8 460.2 145.4 461.5 144.4C462.8 143.3 463.6 142.6 463.7 142.4C466.3 140.3 469.2 138 472.4 135.4C475.8 132.6 479.4 129.4 483.3 125.9C489.5 120.3 494.6 117.5 498.7 117.5C503.7 117.5 505.9 122.1 505.1 131.2C504.9 134.7 504.9 138.2 505.1 141.6C505.3 142.3 505.4 143.5 505.4 145C505.4 146.3 505.4 147.9 505.4 149.8C505.4 151.7 506.5 152.6 508.8 152.6C511.4 152.6 513.8 151.9 516.1 150.4L522.3 146.2L528.5 142.3C528.9 142.1 529.5 142 530.5 142C531.6 142 531.6 142.8 530.5 144.5C518.7 159.1 509 166.3 501.4 166.3C499.9 166.3 498.4 166 496.9 165.5C495.6 164.9 494.7 163.4 494.1 160.7C493.5 157.9 493.2 154.9 493 151.7C493 148.5 493 146.1 493 144.4L493.3 135.2C493.3 131.3 492.3 129.3 490.2 129.3C485.3 129.3 473.4 139.3 454.4 159.3C452.9 161.2 450.6 163.7 447.4 166.9C443.9 169.9 440.8 171.5 437.6 171.5ZM559.6 105.7C557.2 105.7 556 105.1 556 104C556 103.1 556.7 101.8 558 100.1C559.5 98.2 561.2 96.6001 563 95.3C567.1 92.7001 570.3 90.4 572.5 88.6C574.9 86.7 577.8 83.6 581.2 79.1C581.4 79.5 581.5 80.2001 581.5 81.3C581.5 83.7001 580.5 86.7001 578.4 90.3C576.5 93.7001 574.4 96.7 572 99.5C569.6 102.3 567.4 104.1 565.6 104.8C563.8 105.4 561.9 105.7 559.6 105.7ZM534.7 174.3C533.2 174.3 531.8 173.7 530.5 172.6C529.2 171.5 528.5 170 528.5 168.1C528.5 164.2 531.2 157 536.6 146.5L539.7 140.3C540.1 139.9 540.5 139 541.1 137.5C541.8 136 542.9 134 544.2 131.6C545.5 129 546.5 126.7 547.3 124.6C548 122.5 548.6 120.6 549 118.7C549 118.5 549.4 118.1 550.1 117.6C550.8 117 551.6 116.6 552.3 116.2L554 115.9C555.5 115.9 556.7 116.2 557.6 116.7C558.7 117.3 559.1 118 558.7 118.9C557.4 121.7 556.3 124.1 555.3 126.2C554.4 128.3 553.6 130 553.1 131.5H552.8C550.7 136.2 549 140.6 547.5 144.9C546.2 149 545.6 152.9 545.8 156.7L546.1 164.3C545.9 166.2 545.3 167.8 544.1 169.1C543.4 169.7 542.3 170.3 541 171.1C539.7 172 538 173 536 173.9C535.9 174.2 535.5 174.3 534.7 174.3Z" fill="white"/>
</svg>
